<svg xmlns="http://www.w3.org/2000/svg" style="display:none">

  <!--  ANALITICS  -->
  <symbol id="icon-analitics" viewBox="0 0 544 665" >
    <svg width="544" height="665" viewBox="0 0 544 665" fill="none" xmlns="http://www.w3.org/2000/svg">
<rect width="545" height="665" rx="6" fill="#54BD95"/>
<rect x="25" y="128.586" width="493.209" height="490.415" rx="10" fill="#87E1BF"/>
<rect x="50" y="154" width="444" height="438" rx="6" fill="#F5FAFA"/>
<rect x="16" y="225" width="511" height="148" rx="10" fill="white"/>
<g filter="url(#filter0_d_1_58638)">
<rect x="41.1484" y="250.146" width="97.8035" height="97.8035" rx="10" fill="#0F8CE9"/>
</g>
<path d="M90.0508 280.885C98.539 280.885 105.421 287.274 105.421 295.156C105.421 296.507 105.218 297.814 104.841 299.052C109.802 299.115 113.805 303.155 113.805 308.131C113.805 313.146 109.738 317.213 104.723 317.213H75.3809C70.3652 317.213 66.299 313.147 66.2988 308.131C66.2988 303.155 70.3003 299.116 75.2607 299.052C74.8833 297.814 74.6816 296.507 74.6816 295.156C74.6817 287.274 81.5627 280.885 90.0508 280.885Z" fill="#DBE5FA"/>
<rect x="169" y="329.449" width="299" height="13.9719" rx="6.98596" fill="#87E1BF"/>
<rect x="169" y="329.449" width="144.779" height="13.9719" rx="6.98596" fill="#54BD95"/>
<rect x="169" y="298.711" width="163.663" height="8.38316" rx="4.19158" fill="#87E1BF"/>
<rect x="169" y="254" width="299" height="22.3551" rx="11.1775" fill="#87E1BF"/>
<rect x="16.5" y="408.5" width="510" height="147.102" rx="9.5" fill="white" stroke="#EFF2F7"/>
<rect x="169" y="512.449" width="332.793" height="13.9719" rx="6.98596" fill="#87E1BF"/>
<rect x="169" y="512.449" width="238.21" height="13.9719" rx="6.98596" fill="#54BD95"/>
<rect x="169" y="481.711" width="182.16" height="8.38316" rx="4.19158" fill="#87E1BF"/>
<rect x="169" y="437" width="332.793" height="22.3551" rx="11.1775" fill="#87E1BF"/>
<g filter="url(#filter1_d_1_58638)">
<rect x="41" y="433" width="102.787" height="97.8035" rx="10" fill="white"/>
</g>
<g clip-path="url(#clip0_1_58638)">
<path d="M101.619 477.027H82.5048C81.4203 477.027 80.541 477.923 80.541 479.027C80.541 480.131 81.4203 481.026 82.5048 481.026V482.359C82.5048 483.464 83.384 484.359 84.4686 484.359C85.5531 484.359 86.4324 483.464 86.4324 482.359V481.026H97.6915V482.359C97.6915 483.464 98.5707 484.359 99.6552 484.359C100.74 484.359 101.619 483.464 101.619 482.359V481.026C102.704 481.026 103.583 480.131 103.583 479.027C103.583 477.923 102.704 477.027 101.619 477.027Z" fill="#54BD95"/>
<path d="M92.0623 467.695C89.8932 467.695 88.1348 469.486 88.1348 471.694H95.99C95.9899 469.486 94.2315 467.695 92.0623 467.695Z" fill="#54BD95"/>
<path d="M92.0625 453.854C76.8747 453.854 64.5625 466.39 64.5625 481.854C64.5625 497.318 76.8747 509.854 92.0625 509.854C107.25 509.854 119.562 497.318 119.562 481.854C119.562 466.39 107.25 453.854 92.0625 453.854ZM108.82 493.823C108.82 496.032 107.062 497.822 104.893 497.822H79.2322C77.0632 497.822 75.3047 496.032 75.3047 493.823V475.694C75.3047 473.486 77.0632 471.695 79.2322 471.695H84.2072C84.2073 467.278 87.7242 463.697 92.0625 463.697C96.4008 463.697 99.9177 467.278 99.9177 471.695H104.893C107.062 471.695 108.82 473.486 108.82 475.694V493.823H108.82Z" fill="#54BD95"/>
</g>
<mask id="path-20-inside-1_1_58638" fill="white">
<path d="M404.467 153.733C404.467 136.303 401.033 119.042 394.363 102.938C387.692 86.8345 377.915 72.2021 365.59 59.8767C353.264 47.5513 338.632 37.7742 322.528 31.1037C306.424 24.4332 289.164 21 271.733 21C254.303 21 237.042 24.4332 220.938 31.1037C204.835 37.7742 190.202 47.5513 177.877 59.8767C165.551 72.2021 155.774 86.8345 149.104 102.938C142.433 119.042 139 136.303 139 153.733L186.523 153.733C186.523 142.543 188.727 131.463 193.009 121.125C197.291 110.786 203.568 101.393 211.48 93.4804C219.393 85.5679 228.786 79.2913 239.125 75.0091C249.463 70.7269 260.543 68.5228 271.733 68.5228C282.923 68.5228 294.004 70.7269 304.342 75.0091C314.68 79.2913 324.074 85.5679 331.986 93.4804C339.899 101.393 346.175 110.786 350.458 121.125C354.74 131.463 356.944 142.543 356.944 153.733H404.467Z"/>
</mask>
<path d="M404.467 153.733C404.467 136.303 401.033 119.042 394.363 102.938C387.692 86.8345 377.915 72.2021 365.59 59.8767C353.264 47.5513 338.632 37.7742 322.528 31.1037C306.424 24.4332 289.164 21 271.733 21C254.303 21 237.042 24.4332 220.938 31.1037C204.835 37.7742 190.202 47.5513 177.877 59.8767C165.551 72.2021 155.774 86.8345 149.104 102.938C142.433 119.042 139 136.303 139 153.733L186.523 153.733C186.523 142.543 188.727 131.463 193.009 121.125C197.291 110.786 203.568 101.393 211.48 93.4804C219.393 85.5679 228.786 79.2913 239.125 75.0091C249.463 70.7269 260.543 68.5228 271.733 68.5228C282.923 68.5228 294.004 70.7269 304.342 75.0091C314.68 79.2913 324.074 85.5679 331.986 93.4804C339.899 101.393 346.175 110.786 350.458 121.125C354.74 131.463 356.944 142.543 356.944 153.733H404.467Z" stroke="#52459F" stroke-width="68" mask="url(#path-20-inside-1_1_58638)"/>
<mask id="path-21-inside-2_1_58638" fill="white">
<path d="M404.467 153.733C404.467 118.53 390.482 84.769 365.59 59.8767C340.698 34.9844 306.936 21 271.733 21C236.53 21 202.769 34.9844 177.877 59.8767C152.984 84.769 139 118.53 139 153.733H186.546C186.546 131.14 195.521 109.473 211.497 93.4971C227.473 77.5215 249.14 68.5464 271.733 68.5464C294.326 68.5464 315.994 77.5215 331.97 93.4971C347.945 109.473 356.92 131.14 356.92 153.733H404.467Z"/>
</mask>
<path d="M404.467 153.733C404.467 118.53 390.482 84.769 365.59 59.8767C340.698 34.9844 306.936 21 271.733 21C236.53 21 202.769 34.9844 177.877 59.8767C152.984 84.769 139 118.53 139 153.733H186.546C186.546 131.14 195.521 109.473 211.497 93.4971C227.473 77.5215 249.14 68.5464 271.733 68.5464C294.326 68.5464 315.994 77.5215 331.97 93.4971C347.945 109.473 356.92 131.14 356.92 153.733H404.467Z" stroke="#0F8CE9" stroke-width="68" mask="url(#path-21-inside-2_1_58638)"/>
<mask id="path-22-inside-3_1_58638" fill="white">
<path d="M404.467 153.733C404.467 126.336 395.988 99.6093 380.196 77.2215C364.403 54.8337 342.069 37.8814 316.259 28.6909L300.309 73.4824C316.874 79.3808 331.208 90.2606 341.343 104.629C351.479 118.997 356.92 136.15 356.92 153.733H404.467Z"/>
</mask>
<path d="M404.467 153.733C404.467 126.336 395.988 99.6093 380.196 77.2215C364.403 54.8337 342.069 37.8814 316.259 28.6909L300.309 73.4824C316.874 79.3808 331.208 90.2606 341.343 104.629C351.479 118.997 356.92 136.15 356.92 153.733H404.467Z" stroke="#54BD95" stroke-width="68" mask="url(#path-22-inside-3_1_58638)"/>
<mask id="path-23-inside-4_1_58638" fill="white">
<path d="M404.467 153.733C404.467 127.531 396.712 101.915 382.178 80.1126C367.645 58.3102 346.984 41.2969 322.799 31.2163L304.507 75.1031C320.029 81.5728 333.289 92.4918 342.616 106.484C351.943 120.477 356.92 136.917 356.92 153.733H404.467Z"/>
</mask>
<path d="M404.467 153.733C404.467 127.531 396.712 101.915 382.178 80.1126C367.645 58.3102 346.984 41.2969 322.799 31.2163L304.507 75.1031C320.029 81.5728 333.289 92.4918 342.616 106.484C351.943 120.477 356.92 136.917 356.92 153.733H404.467Z" stroke="#FEE900" stroke-width="68" mask="url(#path-23-inside-4_1_58638)"/>
<path d="M149.124 181.846C148.67 181.84 148.222 181.757 147.782 181.598C147.344 181.439 146.946 181.173 146.588 180.802C146.23 180.431 145.944 179.932 145.728 179.306C145.516 178.679 145.41 177.897 145.41 176.959C145.41 176.071 145.498 175.282 145.674 174.593C145.853 173.903 146.109 173.322 146.444 172.848C146.779 172.37 147.183 172.007 147.657 171.759C148.131 171.51 148.663 171.386 149.253 171.386C149.86 171.386 150.398 171.505 150.869 171.744C151.34 171.983 151.721 172.312 152.012 172.733C152.307 173.154 152.495 173.633 152.574 174.17H151.058C150.955 173.746 150.751 173.4 150.446 173.131C150.141 172.863 149.744 172.728 149.253 172.728C148.507 172.728 147.926 173.053 147.508 173.703C147.094 174.352 146.885 175.256 146.882 176.412H146.956C147.132 176.124 147.347 175.879 147.603 175.676C147.861 175.471 148.15 175.314 148.468 175.204C148.789 175.092 149.127 175.035 149.482 175.035C150.072 175.035 150.605 175.179 151.083 175.468C151.563 175.753 151.946 176.147 152.231 176.651C152.516 177.155 152.659 177.731 152.659 178.381C152.659 179.031 152.511 179.619 152.216 180.146C151.925 180.673 151.514 181.091 150.983 181.399C150.453 181.704 149.833 181.853 149.124 181.846ZM149.119 180.554C149.51 180.554 149.86 180.458 150.168 180.265C150.476 180.073 150.72 179.815 150.899 179.49C151.078 179.165 151.167 178.802 151.167 178.401C151.167 178.01 151.079 177.654 150.904 177.332C150.731 177.011 150.493 176.755 150.188 176.566C149.886 176.377 149.542 176.283 149.154 176.283C148.859 176.283 148.585 176.339 148.333 176.452C148.085 176.565 147.866 176.721 147.677 176.919C147.488 177.118 147.339 177.347 147.23 177.605C147.124 177.861 147.071 178.131 147.071 178.416C147.071 178.797 147.158 179.15 147.334 179.475C147.513 179.8 147.757 180.061 148.065 180.26C148.377 180.456 148.728 180.554 149.119 180.554ZM158.014 181.876C157.229 181.873 156.558 181.666 156.001 181.255C155.444 180.844 155.018 180.245 154.723 179.46C154.428 178.674 154.281 177.728 154.281 176.621C154.281 175.517 154.428 174.574 154.723 173.792C155.021 173.01 155.449 172.413 156.006 172.002C156.566 171.592 157.235 171.386 158.014 171.386C158.793 171.386 159.461 171.593 160.018 172.007C160.575 172.418 161.001 173.015 161.296 173.797C161.594 174.576 161.743 175.517 161.743 176.621C161.743 177.731 161.596 178.679 161.301 179.465C161.006 180.247 160.58 180.845 160.023 181.26C159.466 181.671 158.797 181.876 158.014 181.876ZM158.014 180.549C158.704 180.549 159.242 180.212 159.63 179.539C160.021 178.867 160.217 177.894 160.217 176.621C160.217 175.776 160.127 175.062 159.948 174.478C159.773 173.892 159.519 173.448 159.188 173.146C158.86 172.841 158.468 172.689 158.014 172.689C157.328 172.689 156.79 173.027 156.399 173.703C156.008 174.379 155.81 175.352 155.807 176.621C155.807 177.47 155.895 178.187 156.07 178.774C156.249 179.357 156.503 179.8 156.831 180.101C157.159 180.4 157.554 180.549 158.014 180.549ZM168.821 179.798V179.261C168.821 178.877 168.901 178.525 169.06 178.207C169.222 177.886 169.458 177.629 169.766 177.436C170.078 177.241 170.454 177.143 170.895 177.143C171.345 177.143 171.723 177.239 172.028 177.431C172.333 177.624 172.563 177.881 172.719 178.202C172.878 178.524 172.958 178.877 172.958 179.261V179.798C172.958 180.182 172.878 180.535 172.719 180.857C172.56 181.175 172.326 181.432 172.018 181.627C171.713 181.82 171.339 181.916 170.895 181.916C170.447 181.916 170.069 181.82 169.761 181.627C169.453 181.432 169.219 181.175 169.06 180.857C168.901 180.535 168.821 180.182 168.821 179.798ZM169.98 179.261V179.798C169.98 180.083 170.048 180.342 170.184 180.574C170.319 180.806 170.556 180.922 170.895 180.922C171.229 180.922 171.463 180.806 171.596 180.574C171.728 180.342 171.794 180.083 171.794 179.798V179.261C171.794 178.976 171.73 178.717 171.6 178.485C171.475 178.253 171.239 178.137 170.895 178.137C170.563 178.137 170.328 178.253 170.189 178.485C170.049 178.717 169.98 178.976 169.98 179.261ZM163.701 173.971V173.434C163.701 173.05 163.78 172.697 163.939 172.375C164.102 172.054 164.337 171.797 164.645 171.605C164.957 171.413 165.333 171.316 165.774 171.316C166.225 171.316 166.602 171.413 166.907 171.605C167.212 171.797 167.443 172.054 167.598 172.375C167.754 172.697 167.832 173.05 167.832 173.434V173.971C167.832 174.356 167.752 174.709 167.593 175.03C167.438 175.348 167.206 175.605 166.897 175.801C166.592 175.993 166.218 176.089 165.774 176.089C165.323 176.089 164.944 175.993 164.635 175.801C164.33 175.605 164.098 175.348 163.939 175.03C163.78 174.709 163.701 174.356 163.701 173.971ZM164.864 173.434V173.971C164.864 174.256 164.93 174.515 165.063 174.747C165.199 174.979 165.436 175.095 165.774 175.095C166.105 175.095 166.337 174.979 166.47 174.747C166.606 174.515 166.674 174.256 166.674 173.971V173.434C166.674 173.149 166.609 172.891 166.48 172.659C166.35 172.427 166.115 172.311 165.774 172.311C165.442 172.311 165.207 172.427 165.068 172.659C164.932 172.891 164.864 173.149 164.864 173.434ZM164.173 181.707L171.173 171.525H172.361L165.361 181.707H164.173Z" fill="black"/>
<path d="M363.318 179.718V178.475L367.718 171.525H368.698V173.355H368.076L364.929 178.336V178.416H370.96V179.718H363.318ZM368.146 181.707V179.341L368.156 178.774V171.525H369.612V181.707H368.146ZM376.237 181.876C375.452 181.873 374.78 181.666 374.224 181.255C373.667 180.844 373.241 180.245 372.946 179.46C372.651 178.674 372.503 177.728 372.503 176.621C372.503 175.517 372.651 174.574 372.946 173.792C373.244 173.01 373.672 172.413 374.229 172.002C374.789 171.592 375.458 171.386 376.237 171.386C377.016 171.386 377.684 171.593 378.241 172.007C378.797 172.418 379.223 173.015 379.518 173.797C379.817 174.576 379.966 175.517 379.966 176.621C379.966 177.731 379.818 178.679 379.523 179.465C379.228 180.247 378.802 180.845 378.246 181.26C377.689 181.671 377.019 181.876 376.237 181.876ZM376.237 180.549C376.926 180.549 377.465 180.212 377.853 179.539C378.244 178.867 378.439 177.894 378.439 176.621C378.439 175.776 378.35 175.062 378.171 174.478C377.995 173.892 377.742 173.448 377.41 173.146C377.082 172.841 376.691 172.689 376.237 172.689C375.551 172.689 375.012 173.027 374.621 173.703C374.23 174.379 374.033 175.352 374.03 176.621C374.03 177.47 374.117 178.187 374.293 178.774C374.472 179.357 374.726 179.8 375.054 180.101C375.382 180.4 375.776 180.549 376.237 180.549ZM387.044 179.798V179.261C387.044 178.877 387.124 178.525 387.283 178.207C387.445 177.886 387.68 177.629 387.989 177.436C388.3 177.241 388.676 177.143 389.117 177.143C389.568 177.143 389.946 177.239 390.251 177.431C390.556 177.624 390.786 177.881 390.942 178.202C391.101 178.524 391.18 178.877 391.18 179.261V179.798C391.18 180.182 391.101 180.535 390.942 180.857C390.783 181.175 390.549 181.432 390.241 181.627C389.936 181.82 389.561 181.916 389.117 181.916C388.67 181.916 388.292 181.82 387.984 181.627C387.675 181.432 387.442 181.175 387.283 180.857C387.124 180.535 387.044 180.182 387.044 179.798ZM388.202 179.261V179.798C388.202 180.083 388.27 180.342 388.406 180.574C388.542 180.806 388.779 180.922 389.117 180.922C389.452 180.922 389.686 180.806 389.818 180.574C389.951 180.342 390.017 180.083 390.017 179.798V179.261C390.017 178.976 389.952 178.717 389.823 178.485C389.697 178.253 389.462 178.137 389.117 178.137C388.786 178.137 388.55 178.253 388.411 178.485C388.272 178.717 388.202 178.976 388.202 179.261ZM381.923 173.971V173.434C381.923 173.05 382.003 172.697 382.162 172.375C382.324 172.054 382.56 171.797 382.868 171.605C383.179 171.413 383.556 171.316 383.996 171.316C384.447 171.316 384.825 171.413 385.13 171.605C385.435 171.797 385.665 172.054 385.821 172.375C385.977 172.697 386.055 173.05 386.055 173.434V173.971C386.055 174.356 385.975 174.709 385.816 175.03C385.66 175.348 385.428 175.605 385.12 175.801C384.815 175.993 384.441 176.089 383.996 176.089C383.546 176.089 383.166 175.993 382.858 175.801C382.553 175.605 382.321 175.348 382.162 175.03C382.003 174.709 381.923 174.356 381.923 173.971ZM383.087 173.434V173.971C383.087 174.256 383.153 174.515 383.286 174.747C383.421 174.979 383.658 175.095 383.996 175.095C384.328 175.095 384.56 174.979 384.692 174.747C384.828 174.515 384.896 174.256 384.896 173.971V173.434C384.896 173.149 384.832 172.891 384.702 172.659C384.573 172.427 384.338 172.311 383.996 172.311C383.665 172.311 383.43 172.427 383.29 172.659C383.155 172.891 383.087 173.149 383.087 173.434ZM382.396 181.707L389.396 171.525H390.584L383.584 181.707H382.396Z" fill="black"/>
<circle cx="271.737" cy="153.731" r="54.4905" fill="#FEFEFD"/>
<circle cx="271.736" cy="153.73" r="41.9158" fill="#E6F9FD"/>
<defs>
<filter id="filter0_d_1_58638" x="32.1484" y="245.146" width="115.803" height="115.803" filterUnits="userSpaceOnUse" color-interpolation-filters="sRGB">
<feFlood flood-opacity="0" result="BackgroundImageFix"/>
<feColorMatrix in="SourceAlpha" type="matrix" values="0 0 0 0 0 0 0 0 0 0 0 0 0 0 0 0 0 0 127 0" result="hardAlpha"/>
<feOffset dy="4"/>
<feGaussianBlur stdDeviation="4.5"/>
<feComposite in2="hardAlpha" operator="out"/>
<feColorMatrix type="matrix" values="0 0 0 0 0 0 0 0 0 0 0 0 0 0 0 0 0 0 0.05 0"/>
<feBlend mode="normal" in2="BackgroundImageFix" result="effect1_dropShadow_1_58638"/>
<feBlend mode="normal" in="SourceGraphic" in2="effect1_dropShadow_1_58638" result="shape"/>
</filter>
<filter id="filter1_d_1_58638" x="32" y="428" width="120.787" height="115.803" filterUnits="userSpaceOnUse" color-interpolation-filters="sRGB">
<feFlood flood-opacity="0" result="BackgroundImageFix"/>
<feColorMatrix in="SourceAlpha" type="matrix" values="0 0 0 0 0 0 0 0 0 0 0 0 0 0 0 0 0 0 127 0" result="hardAlpha"/>
<feOffset dy="4"/>
<feGaussianBlur stdDeviation="4.5"/>
<feComposite in2="hardAlpha" operator="out"/>
<feColorMatrix type="matrix" values="0 0 0 0 0 0 0 0 0 0 0 0 0 0 0 0 0 0 0.05 0"/>
<feBlend mode="normal" in2="BackgroundImageFix" result="effect1_dropShadow_1_58638"/>
<feBlend mode="normal" in="SourceGraphic" in2="effect1_dropShadow_1_58638" result="shape"/>
</filter>
<clipPath id="clip0_1_58638">
<rect width="55" height="56" fill="white" transform="translate(64.5625 453.854)"/>
</clipPath>
</defs>
</svg>

  </symbol>

  <!--  DIGITAL  -->
  <symbol id="icon-digital" viewBox="0 0 594 320">
    <svg width="594" height="320" viewBox="0 0 594 320" fill="none" xmlns="http://www.w3.org/2000/svg">
<rect width="594" height="320" fill="#F5F5F5"/>
<path d="M-498 -4048C-498 -4049.1 -497.105 -4050 -496 -4050H7361C7362.1 -4050 7363 -4049.1 7363 -4048V4125C7363 4126.1 7362.1 4127 7361 4127H-496C-497.105 4127 -498 4126.1 -498 4125V-4048Z" fill="#CBCBCB"/>
<path d="M-496 -4050V-4049H7361V-4050V-4051H-496V-4050ZM7363 -4048H7362V4125H7363H7364V-4048H7363ZM7361 4127V4126H-496V4127V4128H7361V4127ZM-498 4125H-497V-4048H-498H-499V4125H-498ZM-496 4127V4126C-496.552 4126 -497 4125.55 -497 4125H-498H-499C-499 4126.66 -497.657 4128 -496 4128V4127ZM7363 4125H7362C7362 4125.55 7361.55 4126 7361 4126V4127V4128C7362.66 4128 7364 4126.66 7364 4125H7363ZM7361 -4050V-4049C7361.55 -4049 7362 -4048.55 7362 -4048H7363H7364C7364 -4049.66 7362.66 -4051 7361 -4051V-4050ZM-496 -4050V-4051C-497.657 -4051 -499 -4049.66 -499 -4048H-498H-497C-497 -4048.55 -496.552 -4049 -496 -4049V-4050Z" fill="white" fill-opacity="0.1"/>
<g clip-path="url(#clip0_0_1)">
<rect width="1440" height="7143" transform="translate(-131 -3523)" fill="white"/>
<rect width="1440" height="1880" transform="translate(-131 -1379)" fill="white"/>
<g filter="url(#filter0_d_0_1)">
<rect x="25" y="25.5" width="543.5" height="269.5" rx="6" fill="#F9F8FE"/>
<rect x="135" y="65.8047" width="301" height="14.8043" rx="7.40217" fill="#87E1BF"/>
<rect x="135" y="90.4785" width="274.102" height="14.8043" rx="7.40217" fill="#87E1BF"/>
<rect x="135" y="115.152" width="243.362" height="14.8043" rx="7.40217" fill="#87E1BF"/>
<rect x="135" y="139.826" width="215.183" height="14.8043" rx="7.40217" fill="#87E1BF"/>
<rect x="135" y="184" width="301" height="15" rx="7.5" fill="#87E1BF"/>
<rect x="135" y="209" width="274" height="15" rx="7.5" fill="#87E1BF"/>
<rect x="135" y="234" width="244" height="14" rx="7" fill="#87E1BF"/>
<rect x="135" y="258" width="215" height="15" rx="7.5" fill="#87E1BF"/>
<rect x="50" y="65.8047" width="63" height="88.8261" rx="2" fill="#54BD95"/>
<rect x="50" y="189.174" width="63" height="88.8261" rx="2" fill="#0F8CE9"/>
<circle cx="498" cy="81" r="30" fill="#DBE5FA"/>
<circle cx="498" cy="165" r="30" fill="#0F8CE9"/>
<circle cx="498" cy="249" r="30" fill="#54BD95"/>
<circle cx="513.75" cy="249.312" r="3.25" fill="white"/>
<circle cx="501.562" cy="249.312" r="4.875" fill="white"/>
<circle cx="485.312" cy="249.312" r="7.3125" fill="white"/>
</g>
<g filter="url(#filter1_d_0_1)">
<rect x="608.5" y="-370" width="543.5" height="665" rx="6" fill="#54BD95"/>
</g>
</g>
<defs>
<filter id="filter0_d_0_1" x="0" y="0.5" width="593.5" height="319.5" filterUnits="userSpaceOnUse" color-interpolation-filters="sRGB">
<feFlood flood-opacity="0" result="BackgroundImageFix"/>
<feColorMatrix in="SourceAlpha" type="matrix" values="0 0 0 0 0 0 0 0 0 0 0 0 0 0 0 0 0 0 127 0" result="hardAlpha"/>
<feOffset/>
<feGaussianBlur stdDeviation="12.5"/>
<feComposite in2="hardAlpha" operator="out"/>
<feColorMatrix type="matrix" values="0 0 0 0 0.184233 0 0 0 0 0.223383 0 0 0 0 0.404167 0 0 0 0.15 0"/>
<feBlend mode="normal" in2="BackgroundImageFix" result="effect1_dropShadow_0_1"/>
<feBlend mode="normal" in="SourceGraphic" in2="effect1_dropShadow_0_1" result="shape"/>
</filter>
<filter id="filter1_d_0_1" x="583.5" y="-395" width="593.5" height="715" filterUnits="userSpaceOnUse" color-interpolation-filters="sRGB">
<feFlood flood-opacity="0" result="BackgroundImageFix"/>
<feColorMatrix in="SourceAlpha" type="matrix" values="0 0 0 0 0 0 0 0 0 0 0 0 0 0 0 0 0 0 127 0" result="hardAlpha"/>
<feOffset/>
<feGaussianBlur stdDeviation="12.5"/>
<feComposite in2="hardAlpha" operator="out"/>
<feColorMatrix type="matrix" values="0 0 0 0 0.184233 0 0 0 0 0.223383 0 0 0 0 0.404167 0 0 0 0.15 0"/>
<feBlend mode="normal" in2="BackgroundImageFix" result="effect1_dropShadow_0_1"/>
<feBlend mode="normal" in="SourceGraphic" in2="effect1_dropShadow_0_1" result="shape"/>
</filter>
<clipPath id="clip0_0_1">
<rect width="1440" height="7143" fill="white" transform="translate(-131 -3523)"/>
</clipPath>
</defs>
</svg>

  </symbol>

  <!--  EVENT  -->
  <symbol id="icon-event" viewBox="0 0 594 715">
    <svg width="594" height="715" viewBox="0 0 594 715" fill="none" xmlns="http://www.w3.org/2000/svg">
<rect width="594" height="715" fill="#F5F5F5"/>
<path d="M-1081 -3653C-1081 -3654.1 -1080.1 -3655 -1079 -3655H6778C6779.1 -3655 6780 -3654.1 6780 -3653V4520C6780 4521.1 6779.1 4522 6778 4522H-1079C-1080.1 4522 -1081 4521.1 -1081 4520V-3653Z" fill="#CBCBCB"/>
<path d="M-1079 -3655V-3654H6778V-3655V-3656H-1079V-3655ZM6780 -3653H6779V4520H6780H6781V-3653H6780ZM6778 4522V4521H-1079V4522V4523H6778V4522ZM-1081 4520H-1080V-3653H-1081H-1082V4520H-1081ZM-1079 4522V4521C-1079.55 4521 -1080 4520.55 -1080 4520H-1081H-1082C-1082 4521.66 -1080.66 4523 -1079 4523V4522ZM6780 4520H6779C6779 4520.55 6778.55 4521 6778 4521V4522V4523C6779.66 4523 6781 4521.66 6781 4520H6780ZM6778 -3655V-3654C6778.55 -3654 6779 -3653.55 6779 -3653H6780H6781C6781 -3654.66 6779.66 -3656 6778 -3656V-3655ZM-1079 -3655V-3656C-1080.66 -3656 -1082 -3654.66 -1082 -3653H-1081H-1080C-1080 -3653.55 -1079.55 -3654 -1079 -3654V-3655Z" fill="white" fill-opacity="0.1"/>
<g clip-path="url(#clip0_0_1)">
<rect width="1440" height="7143" transform="translate(-714 -3128)" fill="white"/>
<rect width="1440" height="1880" transform="translate(-714 -984)" fill="white"/>
<g filter="url(#filter0_d_0_1)">
<g clip-path="url(#clip1_0_1)">
<rect x="-558" y="25" width="543.5" height="261.5" rx="6" fill="#F9F8FE"/>
</g>
</g>
<g filter="url(#filter1_d_0_1)">
<rect x="-558" y="420.5" width="543.5" height="269.5" rx="6" fill="#F9F8FE"/>
</g>
<g filter="url(#filter2_d_0_1)">
<rect x="25.5" y="25" width="543.5" height="665" rx="6" fill="#54BD95"/>
<path d="M80 358V59" stroke="#87E1BF" stroke-width="7" stroke-miterlimit="10"/>
<path d="M98 358V59" stroke="#87E1BF" stroke-width="7" stroke-miterlimit="10"/>
<path d="M116 358V59" stroke="#87E1BF" stroke-width="7" stroke-miterlimit="10"/>
<path d="M134 358V59" stroke="#87E1BF" stroke-width="7" stroke-miterlimit="10"/>
<path d="M152 358V59" stroke="#87E1BF" stroke-width="7" stroke-miterlimit="10"/>
<path d="M171 358V59" stroke="#87E1BF" stroke-width="7" stroke-miterlimit="10"/>
<path d="M187 358V59" stroke="#87E1BF" stroke-width="7" stroke-miterlimit="10"/>
<path d="M206 358V59" stroke="#87E1BF" stroke-width="7" stroke-miterlimit="10"/>
<path d="M224 358V59" stroke="#87E1BF" stroke-width="7" stroke-miterlimit="10"/>
<path d="M242 358V59" stroke="#87E1BF" stroke-width="7" stroke-miterlimit="10"/>
<path d="M260 358V59" stroke="#87E1BF" stroke-width="7" stroke-miterlimit="10"/>
<path d="M278 358V59" stroke="#87E1BF" stroke-width="7" stroke-miterlimit="10"/>
<path d="M536.5 57.5V657.5H58.5V57.5H536.5Z" stroke="#87E1BF" stroke-width="15" stroke-miterlimit="10"/>
<path d="M544 358L58 358" stroke="#87E1BF" stroke-width="15" stroke-miterlimit="10"/>
<path d="M298 657L298 59" stroke="#87E1BF" stroke-width="15" stroke-miterlimit="10"/>
<path d="M264 595H88V531.869L176.006 426L264 531.869V595Z" fill="#FEE900"/>
<path d="M498 522.762L456.103 523.455L492.367 544.436L451.833 533.802L481.076 563.78L444.92 542.619L464.989 579.36L435.89 549.239L445.291 590.042L425.413 553.193L423.439 595L414.242 554.161L401.062 593.901L403.238 552.094L379.808 586.804L393.192 547.136L361.258 574.234L384.855 539.644L346.786 557.136L378.851 530.193L337.468 536.777L375.634 519.476L334 514.661L375.419 508.28L336.631 492.425L378.241 497.444L345.171 471.731L383.875 487.777L358.985 454.096L391.924 479.987L377.045 440.845L401.767 474.647L398.024 432.948L412.699 472.161L420.342 431L423.894 472.711L442.373 435.146L434.515 476.26L462.454 445.063L443.796 482.544L479.127 460.034L451.02 491.099L491.123 478.948L455.684 501.279L497.581 500.383L457.419 512.331L498 522.762Z" stroke="#DBE5FA" stroke-width="6" stroke-miterlimit="10"/>
<path d="M374 285C392.778 285 408 270.002 408 251.5C408 232.998 392.778 218 374 218C355.222 218 340 232.998 340 251.5C340 270.002 355.222 285 374 285Z" fill="#FEE900"/>
<path d="M458.5 285C477.002 285 492 270.002 492 251.5C492 232.998 477.002 218 458.5 218C439.998 218 425 232.998 425 251.5C425 270.002 439.998 285 458.5 285Z" fill="#54BD95"/>
<path d="M374 196C392.778 196 408 181.002 408 162.5C408 143.998 392.778 129 374 129C355.222 129 340 143.998 340 162.5C340 181.002 355.222 196 374 196Z" fill="#FEE900"/>
<path d="M458.5 196C477.002 196 492 181.002 492 162.5C492 143.998 477.002 129 458.5 129C439.998 129 425 143.998 425 162.5C425 181.002 439.998 196 458.5 196Z" fill="#FEE900"/>
</g>
</g>
<defs>
<filter id="filter0_d_0_1" x="-583" y="0" width="593.5" height="311.5" filterUnits="userSpaceOnUse" color-interpolation-filters="sRGB">
<feFlood flood-opacity="0" result="BackgroundImageFix"/>
<feColorMatrix in="SourceAlpha" type="matrix" values="0 0 0 0 0 0 0 0 0 0 0 0 0 0 0 0 0 0 127 0" result="hardAlpha"/>
<feOffset/>
<feGaussianBlur stdDeviation="12.5"/>
<feComposite in2="hardAlpha" operator="out"/>
<feColorMatrix type="matrix" values="0 0 0 0 0.184233 0 0 0 0 0.223383 0 0 0 0 0.404167 0 0 0 0.15 0"/>
<feBlend mode="normal" in2="BackgroundImageFix" result="effect1_dropShadow_0_1"/>
<feBlend mode="normal" in="SourceGraphic" in2="effect1_dropShadow_0_1" result="shape"/>
</filter>
<filter id="filter1_d_0_1" x="-583" y="395.5" width="593.5" height="319.5" filterUnits="userSpaceOnUse" color-interpolation-filters="sRGB">
<feFlood flood-opacity="0" result="BackgroundImageFix"/>
<feColorMatrix in="SourceAlpha" type="matrix" values="0 0 0 0 0 0 0 0 0 0 0 0 0 0 0 0 0 0 127 0" result="hardAlpha"/>
<feOffset/>
<feGaussianBlur stdDeviation="12.5"/>
<feComposite in2="hardAlpha" operator="out"/>
<feColorMatrix type="matrix" values="0 0 0 0 0.184233 0 0 0 0 0.223383 0 0 0 0 0.404167 0 0 0 0.15 0"/>
<feBlend mode="normal" in2="BackgroundImageFix" result="effect1_dropShadow_0_1"/>
<feBlend mode="normal" in="SourceGraphic" in2="effect1_dropShadow_0_1" result="shape"/>
</filter>
<filter id="filter2_d_0_1" x="0.5" y="0" width="593.5" height="715" filterUnits="userSpaceOnUse" color-interpolation-filters="sRGB">
<feFlood flood-opacity="0" result="BackgroundImageFix"/>
<feColorMatrix in="SourceAlpha" type="matrix" values="0 0 0 0 0 0 0 0 0 0 0 0 0 0 0 0 0 0 127 0" result="hardAlpha"/>
<feOffset/>
<feGaussianBlur stdDeviation="12.5"/>
<feComposite in2="hardAlpha" operator="out"/>
<feColorMatrix type="matrix" values="0 0 0 0 0.184233 0 0 0 0 0.223383 0 0 0 0 0.404167 0 0 0 0.15 0"/>
<feBlend mode="normal" in2="BackgroundImageFix" result="effect1_dropShadow_0_1"/>
<feBlend mode="normal" in="SourceGraphic" in2="effect1_dropShadow_0_1" result="shape"/>
</filter>
<clipPath id="clip0_0_1">
<rect width="1440" height="7143" fill="white" transform="translate(-714 -3128)"/>
</clipPath>
<clipPath id="clip1_0_1">
<rect x="-558" y="25" width="543.5" height="261.5" rx="6" fill="white"/>
</clipPath>
</defs>
</svg>

  </symbol>

  <!--  MARKETING  -->
  <symbol id="icon-marketing" viewBox="0 0 594 312">
   <svg width="594" height="312" viewBox="0 0 594 312" fill="none" xmlns="http://www.w3.org/2000/svg">
<rect width="594" height="312" fill="#F5F5F5"/>
<path d="M-498 -3653C-498 -3654.1 -497.105 -3655 -496 -3655H7361C7362.1 -3655 7363 -3654.1 7363 -3653V4520C7363 4521.1 7362.1 4522 7361 4522H-496C-497.105 4522 -498 4521.1 -498 4520V-3653Z" fill="#CBCBCB"/>
<path d="M-496 -3655V-3654H7361V-3655V-3656H-496V-3655ZM7363 -3653H7362V4520H7363H7364V-3653H7363ZM7361 4522V4521H-496V4522V4523H7361V4522ZM-498 4520H-497V-3653H-498H-499V4520H-498ZM-496 4522V4521C-496.552 4521 -497 4520.55 -497 4520H-498H-499C-499 4521.66 -497.657 4523 -496 4523V4522ZM7363 4520H7362C7362 4520.55 7361.55 4521 7361 4521V4522V4523C7362.66 4523 7364 4521.66 7364 4520H7363ZM7361 -3655V-3654C7361.55 -3654 7362 -3653.55 7362 -3653H7363H7364C7364 -3654.66 7362.66 -3656 7361 -3656V-3655ZM-496 -3655V-3656C-497.657 -3656 -499 -3654.66 -499 -3653H-498H-497C-497 -3653.55 -496.552 -3654 -496 -3654V-3655Z" fill="white" fill-opacity="0.1"/>
<g clip-path="url(#clip0_0_1)">
<rect width="1440" height="7143" transform="translate(-131 -3128)" fill="white"/>
<rect width="1440" height="1880" transform="translate(-131 -984)" fill="white"/>
<g filter="url(#filter0_d_0_1)">
<g clip-path="url(#clip1_0_1)">
<rect x="25" y="25" width="543.5" height="261.5" rx="6" fill="#F9F8FE"/>
<path fill-rule="evenodd" clip-rule="evenodd" d="M296.494 108.213C271.494 108.212 246.738 112.835 223.641 121.817C200.543 130.8 179.557 143.967 161.879 160.566C144.201 177.165 130.178 196.871 120.612 218.559C111.045 240.247 106.122 263.493 106.124 286.967L75.5 286.969C75.4984 259.718 81.2136 232.734 92.319 207.557C103.425 182.38 119.703 159.503 140.224 140.234C160.746 120.965 185.109 105.68 211.922 95.2518C238.735 84.8239 267.473 79.4575 296.495 79.459L296.494 93.8361L296.495 79.459C418.552 79.459 517.5 172.358 517.5 286.968H486.876C486.876 188.24 401.639 108.213 296.494 108.213H296.494Z" fill="#54BD95"/>
<path fill-rule="evenodd" clip-rule="evenodd" d="M296.5 151.396C258.464 151.396 221.976 165.668 195.066 191.088C168.154 216.51 153.026 250.999 153.026 286.97H122.5C122.5 243.405 140.82 201.615 173.446 170.796C206.074 139.976 250.337 122.652 296.5 122.652C342.663 122.652 386.926 139.976 419.554 170.796C452.18 201.615 470.5 243.405 470.5 286.97H439.974C439.974 250.999 424.846 216.51 397.934 191.088C371.024 165.668 334.536 151.396 296.5 151.396Z" fill="#FEE900"/>
<path fill-rule="evenodd" clip-rule="evenodd" d="M296.5 193.625C270.134 193.625 244.849 203.46 226.205 220.965C207.562 238.47 197.088 262.213 197.088 286.969H166.5C166.5 254.595 180.196 223.548 204.576 200.656C228.956 177.765 262.022 164.904 296.5 164.904C330.978 164.904 364.044 177.765 388.424 200.656C412.804 223.548 426.5 254.595 426.5 286.969H395.912C395.912 262.213 385.438 238.47 366.795 220.965C348.151 203.46 322.866 193.625 296.5 193.625Z" fill="#0F8CE9"/>
<path d="M87.5 131.995L75 112L129 121.266L85 153.452L87.5 131.995Z" fill="#54BD95" stroke="white" stroke-width="2"/>
<path d="M494.265 104.081L477.342 120.502L475.06 65.7603L515.769 102.019L494.265 104.081Z" fill="#54BD95" stroke="white" stroke-width="2"/>
</g>
</g>
<path d="M29.7734 312.5V328.5H26.3906V312.5H29.7734ZM35.8223 321.563V328.5H32.4941V316.5H35.666V318.617H35.8066C36.0723 317.919 36.5176 317.367 37.1426 316.961C37.7676 316.549 38.5254 316.344 39.416 316.344C40.2493 316.344 40.9759 316.526 41.5957 316.891C42.2155 317.255 42.6973 317.776 43.041 318.453C43.3848 319.125 43.5566 319.927 43.5566 320.859V328.5H40.2285V321.453C40.2337 320.719 40.0462 320.146 39.666 319.734C39.2858 319.318 38.7624 319.109 38.0957 319.109C37.6478 319.109 37.252 319.206 36.9082 319.398C36.5697 319.591 36.304 319.872 36.1113 320.242C35.9238 320.607 35.8275 321.047 35.8223 321.563ZM52.6328 316.5V319H45.2266V316.5H52.6328ZM46.9219 328.5V315.633C46.9219 314.763 47.0911 314.042 47.4297 313.469C47.7734 312.896 48.2422 312.466 48.8359 312.18C49.4297 311.893 50.1042 311.75 50.8594 311.75C51.3698 311.75 51.8359 311.789 52.2578 311.867C52.6849 311.945 53.0026 312.016 53.2109 312.078L52.6172 314.578C52.487 314.536 52.3255 314.497 52.1328 314.461C51.9453 314.424 51.7526 314.406 51.5547 314.406C51.0651 314.406 50.724 314.521 50.5313 314.75C50.3385 314.974 50.2422 315.289 50.2422 315.695V328.5H46.9219ZM57.9941 312.5V328.5H54.666V312.5H57.9941ZM68.3555 323.391V316.5H71.6836V328.5H68.4883V326.32H68.3633C68.0924 327.023 67.6419 327.589 67.0117 328.016C66.3867 328.443 65.6237 328.656 64.7227 328.656C63.9206 328.656 63.2148 328.474 62.6055 328.109C61.9961 327.745 61.5195 327.227 61.1758 326.555C60.8372 325.883 60.6654 325.078 60.6602 324.141V316.5H63.9883V323.547C63.9935 324.255 64.1836 324.815 64.5586 325.227C64.9336 325.638 65.4362 325.844 66.0664 325.844C66.4674 325.844 66.8424 325.753 67.1914 325.57C67.5404 325.383 67.8216 325.107 68.0352 324.742C68.2539 324.378 68.3607 323.927 68.3555 323.391ZM79.8145 328.734C78.5801 328.734 77.5176 328.484 76.627 327.984C75.7415 327.479 75.0592 326.766 74.5801 325.844C74.1009 324.917 73.8613 323.82 73.8613 322.555C73.8613 321.32 74.1009 320.237 74.5801 319.305C75.0592 318.372 75.7337 317.646 76.6035 317.125C77.4785 316.604 78.5046 316.344 79.6816 316.344C80.4733 316.344 81.2103 316.471 81.8926 316.727C82.5801 316.977 83.179 317.354 83.6895 317.859C84.2051 318.365 84.6061 319 84.8926 319.766C85.179 320.526 85.3223 321.417 85.3223 322.437V323.352H75.1895V321.289H82.1895C82.1895 320.81 82.0853 320.385 81.877 320.016C81.6686 319.646 81.3796 319.357 81.0098 319.148C80.6452 318.935 80.2207 318.828 79.7363 318.828C79.2311 318.828 78.7832 318.945 78.3926 319.18C78.0072 319.409 77.7051 319.719 77.4863 320.109C77.2676 320.495 77.1556 320.924 77.1504 321.398V323.359C77.1504 323.953 77.2598 324.466 77.4785 324.898C77.7025 325.331 78.0176 325.664 78.4238 325.898C78.8301 326.133 79.3118 326.25 79.8691 326.25C80.2389 326.25 80.5775 326.198 80.8848 326.094C81.1921 325.99 81.4551 325.833 81.6738 325.625C81.8926 325.417 82.0592 325.161 82.1738 324.859L85.252 325.062C85.0957 325.802 84.7754 326.448 84.291 327C83.8118 327.547 83.1921 327.974 82.4316 328.281C81.6764 328.583 80.804 328.734 79.8145 328.734ZM90.8223 321.563V328.5H87.4941V316.5H90.666V318.617H90.8066C91.0723 317.919 91.5176 317.367 92.1426 316.961C92.7676 316.549 93.5254 316.344 94.416 316.344C95.2493 316.344 95.9759 316.526 96.5957 316.891C97.2155 317.255 97.6973 317.776 98.041 318.453C98.3848 319.125 98.5566 319.927 98.5566 320.859V328.5H95.2285V321.453C95.2337 320.719 95.0462 320.146 94.666 319.734C94.2858 319.318 93.7624 319.109 93.0957 319.109C92.6478 319.109 92.252 319.206 91.9082 319.398C91.5697 319.591 91.304 319.872 91.1113 320.242C90.9238 320.607 90.8275 321.047 90.8223 321.563ZM106.602 328.734C105.372 328.734 104.315 328.474 103.43 327.953C102.549 327.427 101.872 326.698 101.398 325.766C100.93 324.833 100.695 323.76 100.695 322.547C100.695 321.318 100.932 320.24 101.406 319.312C101.885 318.38 102.565 317.654 103.445 317.133C104.326 316.607 105.372 316.344 106.586 316.344C107.633 316.344 108.549 316.534 109.336 316.914C110.122 317.294 110.745 317.828 111.203 318.516C111.661 319.203 111.914 320.01 111.961 320.938H108.82C108.732 320.339 108.497 319.857 108.117 319.492C107.742 319.122 107.25 318.937 106.641 318.937C106.125 318.937 105.674 319.078 105.289 319.359C104.909 319.635 104.612 320.039 104.398 320.57C104.185 321.102 104.078 321.745 104.078 322.5C104.078 323.266 104.182 323.917 104.391 324.453C104.604 324.99 104.904 325.398 105.289 325.68C105.674 325.961 106.125 326.102 106.641 326.102C107.021 326.102 107.362 326.023 107.664 325.867C107.971 325.711 108.224 325.484 108.422 325.187C108.625 324.885 108.758 324.523 108.82 324.102H111.961C111.909 325.018 111.659 325.826 111.211 326.523C110.768 327.216 110.156 327.758 109.375 328.148C108.594 328.539 107.669 328.734 106.602 328.734ZM119.561 328.734C118.326 328.734 117.264 328.484 116.373 327.984C115.488 327.479 114.805 326.766 114.326 325.844C113.847 324.917 113.607 323.82 113.607 322.555C113.607 321.32 113.847 320.237 114.326 319.305C114.805 318.372 115.48 317.646 116.35 317.125C117.225 316.604 118.251 316.344 119.428 316.344C120.219 316.344 120.956 316.471 121.639 316.727C122.326 316.977 122.925 317.354 123.436 317.859C123.951 318.365 124.352 319 124.639 319.766C124.925 320.526 125.068 321.417 125.068 322.437V323.352H114.936V321.289H121.936C121.936 320.81 121.831 320.385 121.623 320.016C121.415 319.646 121.126 319.357 120.756 319.148C120.391 318.935 119.967 318.828 119.482 318.828C118.977 318.828 118.529 318.945 118.139 319.18C117.753 319.409 117.451 319.719 117.232 320.109C117.014 320.495 116.902 320.924 116.896 321.398V323.359C116.896 323.953 117.006 324.466 117.225 324.898C117.449 325.331 117.764 325.664 118.17 325.898C118.576 326.133 119.058 326.25 119.615 326.25C119.985 326.25 120.324 326.198 120.631 326.094C120.938 325.99 121.201 325.833 121.42 325.625C121.639 325.417 121.805 325.161 121.92 324.859L124.998 325.062C124.842 325.802 124.521 326.448 124.037 327C123.558 327.547 122.938 327.974 122.178 328.281C121.423 328.583 120.55 328.734 119.561 328.734ZM127.24 328.5V316.5H130.467V318.594H130.592C130.811 317.849 131.178 317.286 131.693 316.906C132.209 316.521 132.803 316.328 133.475 316.328C133.641 316.328 133.821 316.339 134.014 316.359C134.206 316.38 134.376 316.409 134.521 316.445V319.398C134.365 319.352 134.149 319.31 133.873 319.273C133.597 319.237 133.344 319.219 133.115 319.219C132.626 319.219 132.188 319.326 131.803 319.539C131.423 319.747 131.12 320.039 130.896 320.414C130.678 320.789 130.568 321.221 130.568 321.711V328.5H127.24ZM141.334 328.5V316.5H144.506V318.617H144.646C144.896 317.914 145.313 317.359 145.896 316.953C146.48 316.547 147.178 316.344 147.99 316.344C148.813 316.344 149.514 316.549 150.092 316.961C150.67 317.367 151.055 317.919 151.248 318.617H151.373C151.618 317.93 152.061 317.38 152.701 316.969C153.347 316.552 154.11 316.344 154.99 316.344C156.11 316.344 157.019 316.701 157.717 317.414C158.42 318.122 158.771 319.128 158.771 320.43V328.5H155.451V321.086C155.451 320.419 155.274 319.919 154.92 319.586C154.566 319.253 154.123 319.086 153.592 319.086C152.988 319.086 152.516 319.279 152.178 319.664C151.839 320.044 151.67 320.547 151.67 321.172V328.5H148.443V321.016C148.443 320.427 148.274 319.958 147.936 319.609C147.602 319.26 147.162 319.086 146.615 319.086C146.245 319.086 145.912 319.18 145.615 319.367C145.324 319.549 145.092 319.807 144.92 320.141C144.748 320.469 144.662 320.854 144.662 321.297V328.5H141.334ZM164.822 328.727C164.057 328.727 163.374 328.594 162.775 328.328C162.176 328.057 161.702 327.659 161.354 327.133C161.01 326.602 160.838 325.94 160.838 325.148C160.838 324.482 160.96 323.922 161.205 323.469C161.45 323.016 161.783 322.651 162.205 322.375C162.627 322.099 163.106 321.891 163.643 321.75C164.184 321.609 164.752 321.51 165.346 321.453C166.044 321.38 166.606 321.312 167.033 321.25C167.46 321.182 167.77 321.083 167.963 320.953C168.156 320.823 168.252 320.63 168.252 320.375V320.328C168.252 319.833 168.096 319.451 167.783 319.18C167.476 318.909 167.038 318.773 166.471 318.773C165.872 318.773 165.395 318.906 165.041 319.172C164.687 319.432 164.452 319.76 164.338 320.156L161.26 319.906C161.416 319.177 161.723 318.547 162.182 318.016C162.64 317.479 163.231 317.068 163.955 316.781C164.684 316.49 165.528 316.344 166.486 316.344C167.153 316.344 167.791 316.422 168.4 316.578C169.015 316.734 169.559 316.977 170.033 317.305C170.512 317.633 170.89 318.055 171.166 318.57C171.442 319.081 171.58 319.693 171.58 320.406V328.5H168.424V326.836H168.33C168.137 327.211 167.88 327.542 167.557 327.828C167.234 328.109 166.846 328.331 166.393 328.492C165.939 328.648 165.416 328.727 164.822 328.727ZM165.775 326.43C166.265 326.43 166.697 326.333 167.072 326.141C167.447 325.943 167.742 325.677 167.955 325.344C168.169 325.01 168.275 324.633 168.275 324.211V322.938C168.171 323.005 168.028 323.068 167.846 323.125C167.669 323.177 167.468 323.227 167.244 323.273C167.02 323.315 166.796 323.354 166.572 323.391C166.348 323.422 166.145 323.451 165.963 323.477C165.572 323.534 165.231 323.625 164.939 323.75C164.648 323.875 164.421 324.044 164.26 324.258C164.098 324.466 164.018 324.727 164.018 325.039C164.018 325.492 164.182 325.839 164.51 326.078C164.843 326.312 165.265 326.43 165.775 326.43ZM174.162 328.5V316.5H177.389V318.594H177.514C177.732 317.849 178.1 317.286 178.615 316.906C179.131 316.521 179.725 316.328 180.396 316.328C180.563 316.328 180.743 316.339 180.936 316.359C181.128 316.38 181.298 316.409 181.443 316.445V319.398C181.287 319.352 181.071 319.31 180.795 319.273C180.519 319.237 180.266 319.219 180.037 319.219C179.548 319.219 179.11 319.326 178.725 319.539C178.344 319.747 178.042 320.039 177.818 320.414C177.6 320.789 177.49 321.221 177.49 321.711V328.5H174.162ZM186.18 325.047L186.188 321.055H186.672L190.516 316.5H194.336L189.172 322.531H188.383L186.18 325.047ZM183.164 328.5V312.5H186.492V328.5H183.164ZM190.664 328.5L187.133 323.273L189.352 320.922L194.563 328.5H190.664ZM200.943 328.734C199.709 328.734 198.646 328.484 197.756 327.984C196.87 327.479 196.188 326.766 195.709 325.844C195.23 324.917 194.99 323.82 194.99 322.555C194.99 321.32 195.23 320.237 195.709 319.305C196.188 318.372 196.863 317.646 197.732 317.125C198.607 316.604 199.633 316.344 200.811 316.344C201.602 316.344 202.339 316.471 203.021 316.727C203.709 316.977 204.308 317.354 204.818 317.859C205.334 318.365 205.735 319 206.021 319.766C206.308 320.526 206.451 321.417 206.451 322.437V323.352H196.318V321.289H203.318C203.318 320.81 203.214 320.385 203.006 320.016C202.798 319.646 202.508 319.357 202.139 319.148C201.774 318.935 201.35 318.828 200.865 318.828C200.36 318.828 199.912 318.945 199.521 319.18C199.136 319.409 198.834 319.719 198.615 320.109C198.396 320.495 198.285 320.924 198.279 321.398V323.359C198.279 323.953 198.389 324.466 198.607 324.898C198.831 325.331 199.146 325.664 199.553 325.898C199.959 326.133 200.441 326.25 200.998 326.25C201.368 326.25 201.706 326.198 202.014 326.094C202.321 325.99 202.584 325.833 202.803 325.625C203.021 325.417 203.188 325.161 203.303 324.859L206.381 325.062C206.225 325.802 205.904 326.448 205.42 327C204.941 327.547 204.321 327.974 203.561 328.281C202.805 328.583 201.933 328.734 200.943 328.734ZM215.006 316.5V319H207.779V316.5H215.006ZM209.42 313.625H212.748V324.812C212.748 325.12 212.795 325.359 212.889 325.531C212.982 325.698 213.113 325.815 213.279 325.883C213.451 325.951 213.649 325.984 213.873 325.984C214.029 325.984 214.186 325.971 214.342 325.945C214.498 325.914 214.618 325.891 214.701 325.875L215.225 328.352C215.058 328.404 214.824 328.464 214.521 328.531C214.219 328.604 213.852 328.648 213.42 328.664C212.618 328.695 211.915 328.589 211.311 328.344C210.712 328.099 210.245 327.719 209.912 327.203C209.579 326.687 209.415 326.036 209.42 325.25V313.625ZM217.174 328.5V316.5H220.502V328.5H217.174ZM218.846 314.953C218.351 314.953 217.926 314.789 217.572 314.461C217.223 314.128 217.049 313.729 217.049 313.266C217.049 312.807 217.223 312.414 217.572 312.086C217.926 311.753 218.351 311.586 218.846 311.586C219.34 311.586 219.762 311.753 220.111 312.086C220.465 312.414 220.643 312.807 220.643 313.266C220.643 313.729 220.465 314.128 220.111 314.461C219.762 314.789 219.34 314.953 218.846 314.953ZM226.496 321.563V328.5H223.168V316.5H226.34V318.617H226.48C226.746 317.919 227.191 317.367 227.816 316.961C228.441 316.549 229.199 316.344 230.09 316.344C230.923 316.344 231.65 316.526 232.27 316.891C232.889 317.255 233.371 317.776 233.715 318.453C234.059 319.125 234.23 319.927 234.23 320.859V328.5H230.902V321.453C230.908 320.719 230.72 320.146 230.34 319.734C229.96 319.318 229.436 319.109 228.77 319.109C228.322 319.109 227.926 319.206 227.582 319.398C227.243 319.591 226.978 319.872 226.785 320.242C226.598 320.607 226.501 321.047 226.496 321.563ZM242.26 333.25C241.182 333.25 240.257 333.102 239.486 332.805C238.721 332.513 238.111 332.115 237.658 331.609C237.205 331.104 236.911 330.536 236.775 329.906L239.854 329.492C239.947 329.732 240.096 329.956 240.299 330.164C240.502 330.372 240.77 330.539 241.104 330.664C241.442 330.794 241.854 330.859 242.338 330.859C243.062 330.859 243.658 330.682 244.127 330.328C244.601 329.979 244.838 329.393 244.838 328.57V326.375H244.697C244.551 326.708 244.333 327.023 244.041 327.32C243.749 327.617 243.374 327.859 242.916 328.047C242.458 328.234 241.911 328.328 241.275 328.328C240.374 328.328 239.554 328.12 238.814 327.703C238.08 327.281 237.494 326.638 237.057 325.773C236.624 324.904 236.408 323.805 236.408 322.477C236.408 321.117 236.63 319.982 237.072 319.07C237.515 318.159 238.104 317.477 238.838 317.023C239.577 316.57 240.387 316.344 241.268 316.344C241.939 316.344 242.502 316.458 242.955 316.688C243.408 316.911 243.773 317.193 244.049 317.531C244.33 317.865 244.546 318.193 244.697 318.516H244.822V316.5H248.127V328.617C248.127 329.638 247.877 330.492 247.377 331.18C246.877 331.867 246.184 332.383 245.299 332.727C244.419 333.076 243.406 333.25 242.26 333.25ZM242.33 325.828C242.867 325.828 243.32 325.695 243.689 325.43C244.064 325.159 244.351 324.773 244.549 324.273C244.752 323.768 244.854 323.164 244.854 322.461C244.854 321.758 244.755 321.148 244.557 320.633C244.359 320.112 244.072 319.708 243.697 319.422C243.322 319.135 242.867 318.992 242.33 318.992C241.783 318.992 241.322 319.141 240.947 319.437C240.572 319.729 240.288 320.135 240.096 320.656C239.903 321.177 239.807 321.779 239.807 322.461C239.807 323.154 239.903 323.753 240.096 324.258C240.294 324.758 240.577 325.146 240.947 325.422C241.322 325.693 241.783 325.828 242.33 325.828Z" fill="black"/>
<g filter="url(#filter1_d_0_1)">
<rect x="608.5" y="25" width="543.5" height="665" rx="6" fill="#54BD95"/>
</g>
</g>
<defs>
<filter id="filter0_d_0_1" x="0" y="0" width="593.5" height="311.5" filterUnits="userSpaceOnUse" color-interpolation-filters="sRGB">
<feFlood flood-opacity="0" result="BackgroundImageFix"/>
<feColorMatrix in="SourceAlpha" type="matrix" values="0 0 0 0 0 0 0 0 0 0 0 0 0 0 0 0 0 0 127 0" result="hardAlpha"/>
<feOffset/>
<feGaussianBlur stdDeviation="12.5"/>
<feComposite in2="hardAlpha" operator="out"/>
<feColorMatrix type="matrix" values="0 0 0 0 0.184233 0 0 0 0 0.223383 0 0 0 0 0.404167 0 0 0 0.15 0"/>
<feBlend mode="normal" in2="BackgroundImageFix" result="effect1_dropShadow_0_1"/>
<feBlend mode="normal" in="SourceGraphic" in2="effect1_dropShadow_0_1" result="shape"/>
</filter>
<filter id="filter1_d_0_1" x="583.5" y="0" width="593.5" height="715" filterUnits="userSpaceOnUse" color-interpolation-filters="sRGB">
<feFlood flood-opacity="0" result="BackgroundImageFix"/>
<feColorMatrix in="SourceAlpha" type="matrix" values="0 0 0 0 0 0 0 0 0 0 0 0 0 0 0 0 0 0 127 0" result="hardAlpha"/>
<feOffset/>
<feGaussianBlur stdDeviation="12.5"/>
<feComposite in2="hardAlpha" operator="out"/>
<feColorMatrix type="matrix" values="0 0 0 0 0.184233 0 0 0 0 0.223383 0 0 0 0 0.404167 0 0 0 0.15 0"/>
<feBlend mode="normal" in2="BackgroundImageFix" result="effect1_dropShadow_0_1"/>
<feBlend mode="normal" in="SourceGraphic" in2="effect1_dropShadow_0_1" result="shape"/>
</filter>
<clipPath id="clip0_0_1">
<rect width="1440" height="7143" fill="white" transform="translate(-131 -3128)"/>
</clipPath>
<clipPath id="clip1_0_1">
<rect x="25" y="25" width="543.5" height="261.5" rx="6" fill="white"/>
</clipPath>
</defs>
</svg>

  </symbol>

  <!--  PRINT CARD  -->
  <symbol id="icon-print-card" viewBox="0 0 544 270">
    <svg width="544" height="270" viewBox="0 0 544 270" fill="none" xmlns="http://www.w3.org/2000/svg">
<g filter="url(#filter0_d_1_58689)">
<g clip-path="url(#clip0_1_58689)">
<rect x="0.5" width="543.5" height="269.5" rx="6" fill="#F9F8FE"/>
<rect x="25.5" y="47" width="493" height="199" rx="10" fill="#E9EFFC"/>
<rect x="40.5" y="62" width="343" height="170" fill="#F5FAFA"/>
<path d="M280.5 106.5H491" stroke="#DBE5FA" stroke-width="2" stroke-dasharray="12 12"/>
<path d="M280.5 145H491" stroke="#DBE5FA" stroke-width="2" stroke-dasharray="12 12"/>
<path d="M280.5 183.5H491" stroke="#DBE5FA" stroke-width="2" stroke-dasharray="12 12"/>
<rect x="236" y="81.5" width="265" height="133" rx="8.5" stroke="#DBE5FA"/>
<rect x="287.5" y="134" width="18" height="64" rx="9" fill="#54BD95"/>
<rect x="332.5" y="102" width="18" height="64" rx="9" fill="#54BD95"/>
<rect x="377.5" y="116" width="18" height="64" rx="9" fill="#54BD95"/>
<rect x="422.5" y="134" width="18" height="64" rx="9" fill="#54BD95"/>
<rect x="467.5" y="107" width="18" height="64" rx="9" fill="#54BD95"/>
<g filter="url(#filter1_d_1_58689)">
<g clip-path="url(#clip1_1_58689)">
<rect x="53.5" y="25" width="267" height="174" rx="10" fill="#54BD95"/>
<path d="M320 25.5L50 200H320V25.5Z" fill="#5FC09B"/>
<rect x="73.5" y="45" width="42" height="42" rx="10" fill="#FEE900"/>
<rect x="84.5" y="56" width="20" height="20" rx="4" fill="#54BD95"/>
<path d="M99.5 72.6673V64.334" stroke="#F9F8FE" stroke-width="1.66667" stroke-linecap="round" stroke-linejoin="round"/>
<path d="M94.5 72.6673V59.334" stroke="#F9F8FE" stroke-width="1.66667" stroke-linecap="round" stroke-linejoin="round"/>
<path d="M89.5 72.666V67.666" stroke="#F9F8FE" stroke-width="1.66667" stroke-linecap="round" stroke-linejoin="round"/>
<path d="M75.897 166V144.182H83.674C85.3714 144.182 86.7777 144.491 87.8928 145.109C89.0078 145.727 89.8423 146.572 90.3963 147.644C90.9503 148.71 91.2273 149.91 91.2273 151.245C91.2273 152.587 90.9467 153.795 90.3857 154.867C89.8317 155.933 88.9936 156.778 87.8714 157.403C86.7564 158.021 85.3537 158.33 83.6634 158.33H78.3153V155.538H83.3651C84.4375 155.538 85.3075 155.354 85.9751 154.984C86.6428 154.608 87.1328 154.097 87.4453 153.45C87.7578 152.804 87.9141 152.069 87.9141 151.245C87.9141 150.421 87.7578 149.69 87.4453 149.05C87.1328 148.411 86.6392 147.911 85.9645 147.548C85.2969 147.186 84.4162 147.005 83.3224 147.005H79.1889V166H75.897ZM94.8308 166V149.636H97.9096V152.236H98.0801C98.3784 151.355 98.9039 150.663 99.6568 150.158C100.417 149.647 101.276 149.391 102.235 149.391C102.434 149.391 102.668 149.398 102.938 149.413C103.215 149.427 103.432 149.445 103.588 149.466V152.513C103.46 152.477 103.233 152.438 102.906 152.396C102.579 152.346 102.253 152.321 101.926 152.321C101.173 152.321 100.502 152.481 99.9125 152.8C99.3301 153.113 98.8684 153.55 98.5275 154.111C98.1866 154.665 98.0162 155.297 98.0162 156.007V166H94.8308ZM106.344 166V149.636H109.53V166H106.344ZM107.953 147.112C107.399 147.112 106.923 146.927 106.526 146.558C106.135 146.181 105.94 145.734 105.94 145.215C105.94 144.69 106.135 144.242 106.526 143.873C106.923 143.496 107.399 143.308 107.953 143.308C108.507 143.308 108.979 143.496 109.37 143.873C109.768 144.242 109.967 144.69 109.967 145.215C109.967 145.734 109.768 146.181 109.37 146.558C108.979 146.927 108.507 147.112 107.953 147.112ZM117.001 156.284V166H113.815V149.636H116.873V152.3H117.075C117.452 151.433 118.041 150.737 118.844 150.212C119.653 149.686 120.672 149.423 121.901 149.423C123.016 149.423 123.993 149.658 124.831 150.126C125.669 150.588 126.319 151.277 126.78 152.193C127.242 153.109 127.473 154.242 127.473 155.592V166H124.287V155.975C124.287 154.789 123.979 153.862 123.361 153.195C122.743 152.52 121.894 152.183 120.814 152.183C120.076 152.183 119.419 152.342 118.844 152.662C118.275 152.982 117.824 153.45 117.491 154.068C117.164 154.679 117.001 155.418 117.001 156.284ZM139.383 149.636V152.193H130.445V149.636H139.383ZM132.842 145.716H136.028V161.195C136.028 161.813 136.12 162.278 136.305 162.591C136.489 162.896 136.727 163.106 137.018 163.219C137.317 163.326 137.64 163.379 137.988 163.379C138.243 163.379 138.467 163.362 138.659 163.326C138.851 163.29 139 163.262 139.106 163.241L139.682 165.872C139.497 165.943 139.234 166.014 138.893 166.085C138.552 166.163 138.126 166.206 137.615 166.213C136.777 166.227 135.996 166.078 135.271 165.766C134.547 165.453 133.961 164.97 133.513 164.317C133.066 163.663 132.842 162.843 132.842 161.856V145.716Z" fill="white"/>
</g>
</g>
<g filter="url(#filter2_d_1_58689)">
<rect x="272.5" y="37" width="66" height="66" rx="10" fill="white"/>
</g>
<path d="M305.5 57C311.575 57 316.5 61.5729 316.5 67.2139C316.5 68.1807 316.351 69.1155 316.081 70.002C319.634 70.0454 322.5 72.9372 322.5 76.5C322.5 80.0899 319.59 83 316 83H295C291.41 83 288.5 80.0899 288.5 76.5C288.5 72.9375 291.366 70.0459 294.918 70.002C294.648 69.1156 294.5 68.1806 294.5 67.2139C294.5 61.5729 299.425 57 305.5 57Z" fill="#54BD95"/>
</g>
</g>
<defs>
<filter id="filter0_d_1_58689" x="-24.5" y="-25" width="593.5" height="319.5" filterUnits="userSpaceOnUse" color-interpolation-filters="sRGB">
<feFlood flood-opacity="0" result="BackgroundImageFix"/>
<feColorMatrix in="SourceAlpha" type="matrix" values="0 0 0 0 0 0 0 0 0 0 0 0 0 0 0 0 0 0 127 0" result="hardAlpha"/>
<feOffset/>
<feGaussianBlur stdDeviation="12.5"/>
<feComposite in2="hardAlpha" operator="out"/>
<feColorMatrix type="matrix" values="0 0 0 0 0.184233 0 0 0 0 0.223383 0 0 0 0 0.404167 0 0 0 0.15 0"/>
<feBlend mode="normal" in2="BackgroundImageFix" result="effect1_dropShadow_1_58689"/>
<feBlend mode="normal" in="SourceGraphic" in2="effect1_dropShadow_1_58689" result="shape"/>
</filter>
<filter id="filter1_d_1_58689" x="9.5" y="-5" width="355" height="262" filterUnits="userSpaceOnUse" color-interpolation-filters="sRGB">
<feFlood flood-opacity="0" result="BackgroundImageFix"/>
<feColorMatrix in="SourceAlpha" type="matrix" values="0 0 0 0 0 0 0 0 0 0 0 0 0 0 0 0 0 0 127 0" result="hardAlpha"/>
<feOffset dy="14"/>
<feGaussianBlur stdDeviation="22"/>
<feComposite in2="hardAlpha" operator="out"/>
<feColorMatrix type="matrix" values="0 0 0 0 0 0 0 0 0 0 0 0 0 0 0 0 0 0 0.15 0"/>
<feBlend mode="normal" in2="BackgroundImageFix" result="effect1_dropShadow_1_58689"/>
<feBlend mode="normal" in="SourceGraphic" in2="effect1_dropShadow_1_58689" result="shape"/>
</filter>
<filter id="filter2_d_1_58689" x="263.5" y="32" width="84" height="84" filterUnits="userSpaceOnUse" color-interpolation-filters="sRGB">
<feFlood flood-opacity="0" result="BackgroundImageFix"/>
<feColorMatrix in="SourceAlpha" type="matrix" values="0 0 0 0 0 0 0 0 0 0 0 0 0 0 0 0 0 0 127 0" result="hardAlpha"/>
<feOffset dy="4"/>
<feGaussianBlur stdDeviation="4.5"/>
<feComposite in2="hardAlpha" operator="out"/>
<feColorMatrix type="matrix" values="0 0 0 0 0 0 0 0 0 0 0 0 0 0 0 0 0 0 0.05 0"/>
<feBlend mode="normal" in2="BackgroundImageFix" result="effect1_dropShadow_1_58689"/>
<feBlend mode="normal" in="SourceGraphic" in2="effect1_dropShadow_1_58689" result="shape"/>
</filter>
<clipPath id="clip0_1_58689">
<rect x="0.5" width="543.5" height="269.5" rx="6" fill="white"/>
</clipPath>
<clipPath id="clip1_1_58689">
<rect x="53.5" y="25" width="267" height="174" rx="10" fill="white"/>
</clipPath>
</defs>
</svg>

  </symbol>


</svg>
