<svg width="92" height="215" viewBox="0 0 92 215" fill="none" xmlns="http://www.w3.org/2000/svg">
<g opacity="0.64" filter="url(#filter0_f_1_58560)">
<path d="M57.6853 195.745C57.5277 197.107 52.2385 199.754 37.1374 198.006C22.0363 196.257 17.4922 192.471 17.6498 191.109C17.8075 189.748 26.8568 190.034 37.9123 191.314C48.9678 192.594 57.843 194.384 57.6853 195.745Z" fill="black"/>
</g>
<path d="M65.6173 154.905C65.4283 156.537 58.1177 195.082 58.0013 195.318C58.0013 195.318 56.9353 200.298 37.137 198.006C17.3388 195.713 17.4391 190.621 17.4391 190.621C17.3798 190.364 19.0821 151.077 19.2604 149.537C19.4643 147.776 30.0863 146.864 42.8874 148.347C55.6885 149.829 65.8416 152.968 65.6173 154.905Z" fill="#A58465"/>
<path d="M65.6173 154.905C65.4283 156.537 58.1177 195.082 58.0013 195.318C58.0013 195.318 56.9353 200.298 37.137 198.006C17.3388 195.713 17.4391 190.621 17.4391 190.621C17.3798 190.364 19.0821 151.077 19.2604 149.537C19.4643 147.776 30.0863 146.864 42.8874 148.347C55.6885 149.829 65.8416 152.968 65.6173 154.905Z" fill="url(#paint0_linear_1_58560)" fill-opacity="0.32"/>
<g filter="url(#filter1_i_1_58560)">
<ellipse cx="42.4388" cy="152.221" rx="23.3333" ry="3.9" transform="rotate(6.60532 42.4388 152.221)" fill="#6D5947"/>
</g>
<g filter="url(#filter2_i_1_58560)">
<path d="M50.4058 153.143C51.5884 153.28 52.6292 153.613 53.3399 154.03C57.0427 154.615 59.6882 155.387 59.6261 155.929C59.5666 156.443 56.3552 156.66 52.5702 156.466C51.8495 156.609 50.9614 156.643 50.0133 156.533C49.2143 156.44 48.4802 156.258 47.8684 156.022C46.5224 155.83 45.3665 155.603 44.4158 155.36C43.0619 155.526 41.1925 155.511 39.1484 155.275C37.146 155.043 35.3556 154.643 34.0801 154.184C33.703 154.148 33.3178 154.109 32.9271 154.064C28.3934 153.539 24.781 152.571 24.8584 151.903C24.9366 151.234 28.6743 151.118 33.2075 151.642C33.5982 151.688 33.9821 151.738 34.3574 151.789C35.704 151.634 37.5386 151.653 39.5409 151.885C41.9513 152.164 44.0543 152.689 45.3219 153.265C45.9287 153.28 46.5869 153.31 47.2845 153.355C48.076 153.096 49.1916 153.003 50.4058 153.143Z" fill="#51483A"/>
</g>
<path d="M42.7289 149.713C49.0778 150.448 54.7439 151.54 58.7642 152.7C60.7851 153.283 62.3277 153.866 63.3217 154.399C63.5229 154.506 63.6886 154.607 63.8249 154.697C63.6715 154.753 63.4875 154.815 63.2667 154.874C62.1773 155.165 60.5424 155.379 58.4417 155.485C54.2627 155.696 48.497 155.464 42.1481 154.729C35.7991 153.994 30.133 152.901 26.1128 151.741C24.092 151.158 22.5501 150.576 21.5561 150.044C21.3543 149.936 21.1888 149.834 21.0522 149.744C21.2056 149.688 21.3903 149.628 21.6112 149.569C22.7005 149.278 24.3347 149.062 26.4353 148.956C30.6142 148.746 36.38 148.977 42.7289 149.713Z" stroke="#A38263" stroke-width="2.75"/>
<path d="M45.7754 14.303C45.9102 14.6755 47.3097 15.9083 48.0094 16.5247L47.9482 17.053C47.1968 16.3711 45.6628 14.9681 45.5386 14.811C45.3834 14.6145 45.0934 14.0456 45.3098 13.7137C45.5262 13.3818 45.6406 13.9305 45.7754 14.303Z" fill="#286114"/>
<path d="M41.1086 49.6326C41.2708 49.7691 43.2705 51.9637 43.9702 52.5801L43.3549 53.2834C42.6035 52.6016 41.0028 50.2378 40.8786 50.0806C40.7234 49.8842 40.2273 49.2216 40.6226 49.2194C40.6226 49.2194 40.9465 49.4961 41.1086 49.6326Z" fill="#1E3D12"/>
<path d="M14.5024 81.5292C15.048 81.7351 15.707 81.3712 15.9683 81.1636L16.0012 82.4166C15.6432 82.4346 14.6977 82.3013 13.7796 81.624C12.632 80.7772 13.2812 79.7817 13.4976 79.4498L13.4976 79.4498C13.7139 79.1179 14.6123 79.0435 13.9836 79.863C13.3548 80.6825 13.8204 81.2718 14.5024 81.5292Z" fill="#286114"/>
<path d="M17.8515 63.3575C18.8185 63.6123 19.2619 65.008 19.3628 65.674C20.061 65.279 21.4615 64.4537 21.4778 64.3128C21.4982 64.1367 19.6483 63.2087 18.9663 62.9513C18.2843 62.6938 16.6428 63.0391 17.8515 63.3575Z" fill="#1E3D12"/>
<path d="M42.9529 32.5357C43.8168 32.03 45.0663 32.2654 45.6073 32.6646C45.8228 31.8903 46.0775 31.2267 45.9897 31.1156C45.88 30.9767 43.9166 31.6327 43.2525 31.9343C42.5884 32.236 41.8731 33.1677 42.9529 32.5357Z" fill="#1E3D12"/>
<path d="M36.6476 83.9152C36.393 84.8851 35.1451 85.1094 34.553 85.1003L34.7614 86.3736C35.0541 86.4075 35.5102 85.7465 36.0721 85.8116C36.7745 85.8929 37.273 87.7352 37.3341 87.2069C37.3831 86.7843 36.8957 86.3829 36.7949 85.7168C36.7526 85.0576 36.9023 82.9453 36.6476 83.9152Z" fill="#286114"/>
<path d="M74.4901 93.6511L70.5613 90.6978C71.1629 90.1131 72.3766 89.1591 72.4192 90.0206C72.4618 90.8822 73.8176 92.7999 74.4901 93.6511Z" fill="#1E3D12"/>
<path d="M37.8631 65.7376L45.5532 69.4299C44.7295 70.8178 44.0048 73.0425 43.4985 71.4606C42.9923 69.8788 39.5306 66.9862 37.8631 65.7376Z" fill="#1E3D12"/>
<path d="M15.42 108.947L20.7707 107.055C21.0339 108.096 21.7363 109.483 20.7561 108.979C19.776 108.474 16.7903 108.747 15.42 108.947Z" fill="#1E3D12"/>
<path d="M61.1363 111.336L56.4552 114.551C55.9322 113.614 54.8956 112.457 55.9728 112.69C57.05 112.923 59.864 111.884 61.1363 111.336Z" fill="#1E3D12"/>
<path d="M83.9267 78.5006L79.0505 77.9137C79.2801 77.106 79.856 75.6715 80.3224 76.396C80.7889 77.1205 82.9197 78.1009 83.9267 78.5006Z" fill="#1E3D12"/>
<path d="M69.7021 41.5189L64.8259 40.932C65.0555 40.1243 65.6313 38.6898 66.0978 39.4143C66.5643 40.1388 68.6951 41.1192 69.7021 41.5189Z" fill="#1E3D12"/>
<path d="M57.9329 4.11116L58.6266 8.98665C57.7892 8.97381 56.2588 8.78818 56.8362 8.14838C57.4136 7.50859 57.8079 5.19032 57.9329 4.11116Z" fill="#1E3D12"/>
<path d="M69.8171 47.9599C69.6619 47.7635 69.1759 47.3502 70.2907 46.9439C71.1824 46.6189 71.6154 48.8224 71.7203 49.9648L71.1731 50.0799C71.0723 49.4139 70.8314 48.113 70.6747 48.2376C70.4787 48.3934 69.9723 48.1563 69.8171 47.9599Z" fill="#286114"/>
<g filter="url(#filter3_ii_1_58560)">
<path d="M25.9494 119.438C27.3994 122.283 33.3708 130.648 36.4624 133.148C42.1721 139.163 41.4414 110.347 41.1263 109.775C40.3911 108.44 37.1805 102.358 36.7228 100.163C36.2652 97.9689 35.4189 91.4465 35.0507 86.9424C34.6826 82.4384 34.6248 78.3271 33.1906 72.272C31.7564 66.2168 28.6648 63.7173 27.6316 63.4192C26.5984 63.1211 24.2013 62.3082 20.9919 63.8996C17.7824 65.4909 17.4279 70.0898 16.7913 72.5145C16.1546 74.9391 15.7921 81.1432 16.0866 84.7464C16.3812 88.3497 17.0847 96.1048 18.2901 101.063C19.4954 106.021 24.4993 116.594 25.9494 119.438Z" fill="url(#paint1_linear_1_58560)"/>
</g>
<g filter="url(#filter4_f_1_58560)">
<path d="M28.4506 117.051C15.2912 101.608 18.7622 74.7058 19.0149 70.9874C19.2433 67.6255 22.5205 72.6674 22.296 76.0296C21.299 90.9596 23.8545 101.384 27.1227 108.082C30.4145 114.829 37.9383 126.85 32.5875 121.585C31.5066 120.521 30.1454 119.04 28.4506 117.051Z" fill="url(#paint2_linear_1_58560)"/>
</g>
<g opacity="0.8" filter="url(#filter5_f_1_58560)">
<path d="M33.2611 115.467C20.1017 100.023 23.5728 73.1213 23.8254 69.4029C24.0538 66.041 27.331 71.083 27.1065 74.4451C26.1095 89.3752 28.6651 99.7993 31.9332 106.497C35.225 113.244 42.7489 125.266 37.3981 120C36.3172 118.937 34.9559 117.456 33.2611 115.467Z" fill="url(#paint3_linear_1_58560)"/>
</g>
<g opacity="0.4" filter="url(#filter6_f_1_58560)">
<path d="M36.2289 108.48C26.3846 96.8961 28.9882 76.7121 29.1781 73.9224C29.3495 71.4036 31.8015 75.1792 31.6328 77.6982C31.0032 87.0963 32.2457 94.1146 34.1052 99.099C36.7299 106.134 42.3369 115.404 37.3579 109.783C37.0057 109.385 36.6298 108.951 36.2289 108.48Z" fill="url(#paint4_linear_1_58560)"/>
</g>
<path d="M14.639 88.0356C14.639 88.0356 17.1868 88.0169 17.9375 88.4175C18.6881 88.8182 17.2327 90.3679 16.7662 89.6434C16.2997 88.9189 15.6461 88.4353 14.639 88.0356Z" fill="#1E3D12"/>
<mask id="mask0_1_58560" style="mask-type:alpha" maskUnits="userSpaceOnUse" x="15" y="62" width="27" height="72">
<path d="M25.9494 119.438C27.3994 122.283 33.3708 130.648 36.4624 133.148C42.1721 139.163 41.4414 110.347 41.1263 109.775C40.3911 108.44 37.1805 102.358 36.7228 100.163C36.2652 97.9689 35.4189 91.4465 35.0507 86.9424C34.6826 82.4384 34.6248 78.3271 33.1906 72.272C31.7564 66.2168 28.6648 63.7173 27.6316 63.4192C26.5984 63.1211 24.2013 62.3082 20.9919 63.8996C17.7824 65.4909 17.4279 70.0898 16.7913 72.5145C16.1546 74.9391 15.7921 81.1432 16.0866 84.7464C16.3812 88.3497 17.0847 96.1048 18.2901 101.063C19.4954 106.021 24.4993 116.594 25.9494 119.438Z" fill="url(#paint5_linear_1_58560)"/>
</mask>
<g mask="url(#mask0_1_58560)">
<g opacity="0.32" filter="url(#filter7_f_1_58560)">
<path d="M32.532 127.478C32.0097 123.921 30.8556 87.4207 33.56 87.0196C36.2645 86.6186 41.8034 122.469 42.3258 126.026C42.8481 129.583 41.0791 132.791 38.3746 133.192C35.6701 133.594 33.0543 131.035 32.532 127.478Z" fill="black"/>
</g>
</g>
<path d="M57.2822 121.668C57.4781 121.512 57.8906 121.025 58.295 122.142C58.6185 123.037 56.4208 123.472 55.2816 123.578L55.1671 123.029C55.8313 122.928 57.1288 122.686 57.0046 122.528C56.8494 122.332 57.0862 121.824 57.2822 121.668Z" fill="#286114"/>
<path d="M34.156 113.116C34.156 113.116 36.4254 113.83 36.9242 114.096C37.4229 114.362 36.389 115.586 36.0791 115.104C35.7692 114.623 34.8251 113.381 34.156 113.116Z" fill="#1E3D12"/>
<path d="M30.56 138.029C30.56 138.029 32.5478 140.643 33.2831 141.072C34.0183 141.5 34.7601 139.204 33.9 139.189C33.0399 139.173 31.4294 138.677 30.56 138.029Z" fill="#1E3D12"/>
<g filter="url(#filter8_i_1_58560)">
<path d="M35.6837 116.818C34.7375 124.989 32.5683 146.795 32.2387 154.252C32.2387 154.252 34.7453 155.042 42.2068 155.763C49.6684 156.484 52.1013 156.374 52.1013 156.374C55.5784 124.297 63.8559 49.9466 64.9072 45.7853C66.2213 40.5838 68.5301 23.7192 67.8232 20.6036C67.1163 17.488 63.1172 8.99429 57.1266 8.47905C51.136 7.96381 49.4299 13.4769 47.9481 17.0529C46.4663 20.6289 45.4921 32.1158 44.758 38.4553L39.4561 84.2402L35.6837 116.818Z" fill="#51A234"/>
<path d="M35.6837 116.818C34.7375 124.989 32.5683 146.795 32.2387 154.252C32.2387 154.252 34.7453 155.042 42.2068 155.763C49.6684 156.484 52.1013 156.374 52.1013 156.374C55.5784 124.297 63.8559 49.9466 64.9072 45.7853C66.2213 40.5838 68.5301 23.7192 67.8232 20.6036C67.1163 17.488 63.1172 8.99429 57.1266 8.47905C51.136 7.96381 49.4299 13.4769 47.9481 17.0529C46.4663 20.6289 45.4921 32.1158 44.758 38.4553L39.4561 84.2402L35.6837 116.818Z" fill="url(#paint6_linear_1_58560)" fill-opacity="0.24"/>
</g>
<mask id="mask1_1_58560" style="mask-type:alpha" maskUnits="userSpaceOnUse" x="32" y="8" width="36" height="149">
<path d="M35.6837 116.818C34.7375 124.989 32.5683 146.795 32.2387 154.252C32.2387 154.252 34.7453 155.042 42.2068 155.764C49.6684 156.485 52.1013 156.374 52.1013 156.374C55.5784 124.297 63.8559 49.9469 64.9072 45.7857C66.2213 40.5842 68.5301 23.7196 67.8232 20.6039C67.1163 17.4883 63.1172 8.99464 57.1266 8.4794C51.136 7.96416 49.4299 13.4772 47.9481 17.0532C46.4663 20.6293 45.4921 32.1162 44.758 38.4556L39.4561 84.2406L35.6837 116.818Z" fill="#51A234"/>
<path d="M35.6837 116.818C34.7375 124.989 32.5683 146.795 32.2387 154.252C32.2387 154.252 34.7453 155.042 42.2068 155.764C49.6684 156.485 52.1013 156.374 52.1013 156.374C55.5784 124.297 63.8559 49.9469 64.9072 45.7857C66.2213 40.5842 68.5301 23.7196 67.8232 20.6039C67.1163 17.4883 63.1172 8.99464 57.1266 8.4794C51.136 7.96416 49.4299 13.4772 47.9481 17.0532C46.4663 20.6293 45.4921 32.1162 44.758 38.4556L39.4561 84.2406L35.6837 116.818Z" fill="url(#paint7_linear_1_58560)" fill-opacity="0.24"/>
</mask>
<g mask="url(#mask1_1_58560)">
<g filter="url(#filter9_f_1_58560)">
<rect x="50.207" y="12.1395" width="4.94949" height="147.136" rx="2.47475" transform="rotate(6.60532 50.207 12.1395)" fill="url(#paint8_linear_1_58560)"/>
</g>
<g opacity="0.8" filter="url(#filter10_f_1_58560)">
<rect x="57.6641" y="12.2891" width="2.12121" height="147.845" rx="1.06061" transform="rotate(6.60532 57.6641 12.2891)" fill="url(#paint9_linear_1_58560)"/>
</g>
<g opacity="0.4" filter="url(#filter11_f_1_58560)">
<path d="M62.019 23.8537C62.1088 23.0779 62.8106 22.5218 63.5864 22.6116C64.3622 22.7015 64.9183 23.4032 64.8285 24.1791L48.4735 165.416C48.3837 166.192 47.6819 166.748 46.9061 166.658C46.1303 166.568 45.5742 165.867 45.664 165.091L62.019 23.8537Z" fill="url(#paint10_linear_1_58560)"/>
</g>
<g opacity="0.24" filter="url(#filter12_f_1_58560)">
<path d="M60.1457 91.511C59.8043 94.4594 51.0457 123.594 47.5545 123.19C44.0633 122.785 47.1615 92.9954 47.5029 90.047C47.8443 87.0986 50.9513 85.0362 54.4425 85.4405C57.9337 85.8448 60.4871 88.5626 60.1457 91.511Z" fill="black"/>
</g>
<g opacity="0.24" filter="url(#filter13_f_1_58560)">
<path d="M29.0707 145.162C31.8221 146.254 57.6135 162.26 56.3183 165.537C55.0231 168.815 27.1318 158.122 24.3803 157.03C21.6289 155.938 20.4484 152.396 21.7436 149.119C23.0388 145.842 26.3193 144.07 29.0707 145.162Z" fill="black"/>
</g>
</g>
<path d="M40.6952 106.334C40.6952 106.334 40.7561 108.888 41.1789 109.628C41.6017 110.368 43.3887 108.751 42.652 108.306C41.9153 107.861 41.125 107.331 40.6952 106.334Z" fill="#1E3D12"/>
<path d="M34.1799 143.693C34.1799 143.693 36.5761 144.426 37.3984 144.208C38.2208 143.989 37.5909 142.179 36.9712 142.777C36.3574 143.37 35.2725 143.531 34.2104 143.689L34.1799 143.693Z" fill="#1E3D12"/>
<path d="M55.7568 134.133C55.7568 134.133 54.0857 136.121 53.115 136.861C52.1444 137.601 51.1596 135.702 52.3799 135.527L52.3989 135.524C53.6109 135.35 54.6394 135.202 55.7568 134.133Z" fill="#1E3D12"/>
<path d="M63.8738 62.3982C63.8738 62.3982 60.395 60.1683 59.945 59.4448C59.4949 58.7213 61.7603 57.9061 61.8029 58.7677C61.8455 59.6292 63.2012 61.547 63.8738 62.3982Z" fill="#1E3D12"/>
<g filter="url(#filter14_ii_1_58560)">
<path d="M64.5292 75.1869C61.9653 78.8875 54.0453 83.2527 51.9861 85.1558C47.9658 89.1398 48.4753 92.4229 48.549 93.3237C48.6226 94.2245 49.3624 98.5931 54.5566 98.3023C59.7508 98.0115 69.2974 93.9417 74.6378 87.7788C79.9781 81.6158 82.4398 77.261 81.8586 68.4492C81.2775 59.6375 77.283 54.1782 75.731 52.2139C74.1789 50.2496 69.7358 48.6644 67.3024 51.2379C64.869 53.8114 66.932 59.0471 67.145 63.3548C67.3579 67.6624 67.7341 70.5613 64.5292 75.1869Z" fill="url(#paint11_linear_1_58560)"/>
</g>
<g opacity="0.8" filter="url(#filter15_f_1_58560)">
<path d="M57.4889 90.0141C71.9594 82.2071 73.273 70.2598 73.0102 62.6883C72.8599 58.3603 68.5882 52.3168 69.0801 56.6194C71.6437 79.045 59.0425 82.3446 55.4415 86.8055C52.3051 90.6907 48.2581 95.057 52.4742 92.7685C54.1454 91.8613 55.8153 90.917 57.4889 90.0141Z" fill="url(#paint12_linear_1_58560)"/>
</g>
<g opacity="0.4" filter="url(#filter16_f_1_58560)">
<path d="M78.0157 65.1407C78.3702 62.9889 75.3521 63.6683 75.3421 65.4837C75.2429 83.4843 67.4202 84.2317 64.7599 87.4913C62.6406 90.0881 59.9578 92.9786 61.9015 92.1748C63.6518 91.451 65.2774 90.4152 66.9283 89.4868C81.3267 81.3895 77.5957 67.6899 78.0157 65.1407Z" fill="url(#paint13_linear_1_58560)"/>
</g>
<path d="M79.2408 52.6203C79.2408 52.6203 79.0524 56.7575 78.6524 57.5105C78.2523 58.2635 76.4169 56.7043 77.1397 56.236C77.8624 55.7678 78.8415 53.6304 79.2408 52.6203Z" fill="#1E3D12"/>
<path d="M62.5904 8.93316C62.5904 8.93316 62.402 13.0704 62.002 13.8234C61.6019 14.5764 59.7665 13.0171 60.4893 12.5489C61.212 12.0806 62.1912 9.9433 62.5904 8.93316Z" fill="#1E3D12"/>
<path d="M53.7529 81.7914C53.7529 81.7914 55.1655 83.5822 55.2701 84.0407C55.3747 84.4993 54.0477 84.5152 54.1802 84.0583C54.3127 83.6014 53.9506 82.3566 53.7529 81.7914Z" fill="#1E3D12"/>
<path d="M63.5654 71.2154C63.5654 71.2154 66.1132 71.1966 66.8638 71.5973C67.6145 71.998 66.0584 73.8395 65.5919 73.1151C65.1254 72.3906 64.5725 71.6151 63.5654 71.2154Z" fill="#1E3D12"/>
<path d="M64.6018 30.9381C64.6018 30.9381 63.9588 33.4107 63.3781 34.0343C62.7973 34.658 61.4273 32.6752 62.2461 32.4104C63.065 32.1457 63.9555 31.8103 64.6018 30.9381Z" fill="#1E3D12"/>
<path d="M49.4885 20.6552C49.4885 20.6552 50.9911 22.4158 51.7263 22.8443C52.4616 23.2728 53.027 21.3968 52.167 21.381C51.3069 21.3652 50.358 21.3027 49.4885 20.6552Z" fill="#1E3D12"/>
<path d="M31.9202 92.4689C31.9202 92.4689 31.9372 95.0237 31.5371 95.7768C31.1371 96.5298 29.3017 94.9705 30.0244 94.5023C30.7472 94.034 31.5209 93.4791 31.9202 92.4689Z" fill="#1E3D12"/>
<path d="M32.3245 65.9256C32.3245 65.9256 31.611 68.2018 31.3452 68.7021C31.0794 69.2024 29.86 68.1664 30.3402 67.8553C30.8204 67.5442 32.0593 66.5967 32.3245 65.9256Z" fill="#1E3D12"/>
<path d="M63.4802 152.94C64.9153 153.625 65.6882 154.296 65.618 154.905C65.3702 157.044 54.7914 157.577 41.9903 156.095C29.1893 154.613 19.013 151.676 19.2608 149.537C19.3315 148.928 20.2367 148.451 21.7901 148.112C20.5132 148.486 19.8792 149.184 20.3109 149.654C20.3093 149.655 20.308 149.657 20.3065 149.658C20.3161 149.668 20.3263 149.68 20.338 149.692C20.5176 149.877 20.8463 150.117 21.3664 150.396C22.3972 150.948 23.9707 151.539 26.0019 152.125C30.0496 153.293 35.7382 154.39 42.1024 155.127C48.4666 155.864 54.2562 156.096 58.4637 155.884C60.5752 155.778 62.2421 155.562 63.3718 155.26C63.9417 155.108 64.3167 154.949 64.5339 154.81C64.5478 154.801 64.5606 154.792 64.5723 154.783C64.571 154.782 64.5701 154.781 64.5688 154.779C65.098 154.421 64.6395 153.596 63.4802 152.94Z" fill="#E2C2A4"/>
<defs>
<filter id="filter0_f_1_58560" x="1.64648" y="174.213" width="72.041" height="40.3715" filterUnits="userSpaceOnUse" color-interpolation-filters="sRGB">
<feFlood flood-opacity="0" result="BackgroundImageFix"/>
<feBlend mode="normal" in="SourceGraphic" in2="BackgroundImageFix" result="shape"/>
<feGaussianBlur stdDeviation="8" result="effect1_foregroundBlur_1_58560"/>
</filter>
<filter id="filter1_i_1_58560" x="19.2559" y="147.507" width="46.3652" height="14.9269" filterUnits="userSpaceOnUse" color-interpolation-filters="sRGB">
<feFlood flood-opacity="0" result="BackgroundImageFix"/>
<feBlend mode="normal" in="SourceGraphic" in2="BackgroundImageFix" result="shape"/>
<feColorMatrix in="SourceAlpha" type="matrix" values="0 0 0 0 0 0 0 0 0 0 0 0 0 0 0 0 0 0 127 0" result="hardAlpha"/>
<feOffset dy="5.5"/>
<feGaussianBlur stdDeviation="2.75"/>
<feComposite in2="hardAlpha" operator="arithmetic" k2="-1" k3="1"/>
<feColorMatrix type="matrix" values="0 0 0 0 0 0 0 0 0 0 0 0 0 0 0 0 0 0 0.25 0"/>
<feBlend mode="normal" in2="shape" result="effect1_innerShadow_1_58560"/>
</filter>
<filter id="filter2_i_1_58560" x="24.8574" y="148.564" width="34.7695" height="8.03398" filterUnits="userSpaceOnUse" color-interpolation-filters="sRGB">
<feFlood flood-opacity="0" result="BackgroundImageFix"/>
<feBlend mode="normal" in="SourceGraphic" in2="BackgroundImageFix" result="shape"/>
<feColorMatrix in="SourceAlpha" type="matrix" values="0 0 0 0 0 0 0 0 0 0 0 0 0 0 0 0 0 0 127 0" result="hardAlpha"/>
<feOffset dy="-2.75"/>
<feGaussianBlur stdDeviation="2.75"/>
<feComposite in2="hardAlpha" operator="arithmetic" k2="-1" k3="1"/>
<feColorMatrix type="matrix" values="0 0 0 0 0 0 0 0 0 0 0 0 0 0 0 0 0 0 0.32 0"/>
<feBlend mode="normal" in2="shape" result="effect1_innerShadow_1_58560"/>
</filter>
<filter id="filter3_ii_1_58560" x="7.98242" y="54.9456" width="41.3555" height="91.0276" filterUnits="userSpaceOnUse" color-interpolation-filters="sRGB">
<feFlood flood-opacity="0" result="BackgroundImageFix"/>
<feBlend mode="normal" in="SourceGraphic" in2="BackgroundImageFix" result="shape"/>
<feColorMatrix in="SourceAlpha" type="matrix" values="0 0 0 0 0 0 0 0 0 0 0 0 0 0 0 0 0 0 127 0" result="hardAlpha"/>
<feOffset dx="8" dy="-16"/>
<feGaussianBlur stdDeviation="4"/>
<feComposite in2="hardAlpha" operator="arithmetic" k2="-1" k3="1"/>
<feColorMatrix type="matrix" values="0 0 0 0 0 0 0 0 0 0 0 0 0 0 0 0 0 0 0.25 0"/>
<feBlend mode="normal" in2="shape" result="effect1_innerShadow_1_58560"/>
<feColorMatrix in="SourceAlpha" type="matrix" values="0 0 0 0 0 0 0 0 0 0 0 0 0 0 0 0 0 0 127 0" result="hardAlpha"/>
<feOffset dx="-8" dy="12"/>
<feGaussianBlur stdDeviation="8"/>
<feComposite in2="hardAlpha" operator="arithmetic" k2="-1" k3="1"/>
<feColorMatrix type="matrix" values="0 0 0 0 0.499306 0 0 0 0 0.833333 0 0 0 0 0.381944 0 0 0 1 0"/>
<feBlend mode="normal" in2="effect1_innerShadow_1_58560" result="effect2_innerShadow_1_58560"/>
</filter>
<filter id="filter4_f_1_58560" x="10.416" y="61.8786" width="32.0371" height="69.0037" filterUnits="userSpaceOnUse" color-interpolation-filters="sRGB">
<feFlood flood-opacity="0" result="BackgroundImageFix"/>
<feBlend mode="normal" in="SourceGraphic" in2="BackgroundImageFix" result="shape"/>
<feGaussianBlur stdDeviation="4" result="effect1_foregroundBlur_1_58560"/>
</filter>
<filter id="filter5_f_1_58560" x="15.2266" y="60.2941" width="32.0371" height="69.0037" filterUnits="userSpaceOnUse" color-interpolation-filters="sRGB">
<feFlood flood-opacity="0" result="BackgroundImageFix"/>
<feBlend mode="normal" in="SourceGraphic" in2="BackgroundImageFix" result="shape"/>
<feGaussianBlur stdDeviation="4" result="effect1_foregroundBlur_1_58560"/>
</filter>
<filter id="filter6_f_1_58560" x="20.7285" y="65.0914" width="26.6211" height="54.422" filterUnits="userSpaceOnUse" color-interpolation-filters="sRGB">
<feFlood flood-opacity="0" result="BackgroundImageFix"/>
<feBlend mode="normal" in="SourceGraphic" in2="BackgroundImageFix" result="shape"/>
<feGaussianBlur stdDeviation="4" result="effect1_foregroundBlur_1_58560"/>
</filter>
<filter id="filter7_f_1_58560" x="15.8359" y="71.0163" width="42.582" height="78.2175" filterUnits="userSpaceOnUse" color-interpolation-filters="sRGB">
<feFlood flood-opacity="0" result="BackgroundImageFix"/>
<feBlend mode="normal" in="SourceGraphic" in2="BackgroundImageFix" result="shape"/>
<feGaussianBlur stdDeviation="8" result="effect1_foregroundBlur_1_58560"/>
</filter>
<filter id="filter8_i_1_58560" x="24.2383" y="8.44538" width="43.7168" height="159.934" filterUnits="userSpaceOnUse" color-interpolation-filters="sRGB">
<feFlood flood-opacity="0" result="BackgroundImageFix"/>
<feBlend mode="normal" in="SourceGraphic" in2="BackgroundImageFix" result="shape"/>
<feColorMatrix in="SourceAlpha" type="matrix" values="0 0 0 0 0 0 0 0 0 0 0 0 0 0 0 0 0 0 127 0" result="hardAlpha"/>
<feOffset dx="-8" dy="12"/>
<feGaussianBlur stdDeviation="8"/>
<feComposite in2="hardAlpha" operator="arithmetic" k2="-1" k3="1"/>
<feColorMatrix type="matrix" values="0 0 0 0 0.499306 0 0 0 0 0.833333 0 0 0 0 0.381944 0 0 0 1 0"/>
<feBlend mode="normal" in2="shape" result="effect1_innerShadow_1_58560"/>
</filter>
<filter id="filter9_f_1_58560" x="25.5508" y="4.4075" width="37.3047" height="162.193" filterUnits="userSpaceOnUse" color-interpolation-filters="sRGB">
<feFlood flood-opacity="0" result="BackgroundImageFix"/>
<feBlend mode="normal" in="SourceGraphic" in2="BackgroundImageFix" result="shape"/>
<feGaussianBlur stdDeviation="4" result="effect1_foregroundBlur_1_58560"/>
</filter>
<filter id="filter10_f_1_58560" x="32.7715" y="4.40397" width="34.8848" height="162.878" filterUnits="userSpaceOnUse" color-interpolation-filters="sRGB">
<feFlood flood-opacity="0" result="BackgroundImageFix"/>
<feBlend mode="normal" in="SourceGraphic" in2="BackgroundImageFix" result="shape"/>
<feGaussianBlur stdDeviation="4" result="effect1_foregroundBlur_1_58560"/>
</filter>
<filter id="filter11_f_1_58560" x="37.6543" y="14.6021" width="35.1836" height="160.066" filterUnits="userSpaceOnUse" color-interpolation-filters="sRGB">
<feFlood flood-opacity="0" result="BackgroundImageFix"/>
<feBlend mode="normal" in="SourceGraphic" in2="BackgroundImageFix" result="shape"/>
<feGaussianBlur stdDeviation="4" result="effect1_foregroundBlur_1_58560"/>
</filter>
<filter id="filter12_f_1_58560" x="29.9102" y="69.3899" width="46.2656" height="69.8039" filterUnits="userSpaceOnUse" color-interpolation-filters="sRGB">
<feFlood flood-opacity="0" result="BackgroundImageFix"/>
<feBlend mode="normal" in="SourceGraphic" in2="BackgroundImageFix" result="shape"/>
<feGaussianBlur stdDeviation="8" result="effect1_foregroundBlur_1_58560"/>
</filter>
<filter id="filter13_f_1_58560" x="5.21875" y="128.84" width="67.1465" height="53.3193" filterUnits="userSpaceOnUse" color-interpolation-filters="sRGB">
<feFlood flood-opacity="0" result="BackgroundImageFix"/>
<feBlend mode="normal" in="SourceGraphic" in2="BackgroundImageFix" result="shape"/>
<feGaussianBlur stdDeviation="8" result="effect1_foregroundBlur_1_58560"/>
</filter>
<filter id="filter14_ii_1_58560" x="40.4883" y="41.8978" width="49.4531" height="66.4184" filterUnits="userSpaceOnUse" color-interpolation-filters="sRGB">
<feFlood flood-opacity="0" result="BackgroundImageFix"/>
<feBlend mode="normal" in="SourceGraphic" in2="BackgroundImageFix" result="shape"/>
<feColorMatrix in="SourceAlpha" type="matrix" values="0 0 0 0 0 0 0 0 0 0 0 0 0 0 0 0 0 0 127 0" result="hardAlpha"/>
<feOffset dx="8" dy="-8"/>
<feGaussianBlur stdDeviation="4"/>
<feComposite in2="hardAlpha" operator="arithmetic" k2="-1" k3="1"/>
<feColorMatrix type="matrix" values="0 0 0 0 0 0 0 0 0 0 0 0 0 0 0 0 0 0 0.16 0"/>
<feBlend mode="normal" in2="shape" result="effect1_innerShadow_1_58560"/>
<feColorMatrix in="SourceAlpha" type="matrix" values="0 0 0 0 0 0 0 0 0 0 0 0 0 0 0 0 0 0 127 0" result="hardAlpha"/>
<feOffset dx="-8" dy="10"/>
<feGaussianBlur stdDeviation="8"/>
<feComposite in2="hardAlpha" operator="arithmetic" k2="-1" k3="1"/>
<feColorMatrix type="matrix" values="0 0 0 0 0.499306 0 0 0 0 0.833333 0 0 0 0 0.381944 0 0 0 1 0"/>
<feBlend mode="normal" in2="effect1_innerShadow_1_58560" result="effect2_innerShadow_1_58560"/>
</filter>
<filter id="filter15_f_1_58560" x="42.6621" y="47.1425" width="38.377" height="54.2587" filterUnits="userSpaceOnUse" color-interpolation-filters="sRGB">
<feFlood flood-opacity="0" result="BackgroundImageFix"/>
<feBlend mode="normal" in="SourceGraphic" in2="BackgroundImageFix" result="shape"/>
<feGaussianBlur stdDeviation="4" result="effect1_foregroundBlur_1_58560"/>
</filter>
<filter id="filter16_f_1_58560" x="53.2305" y="55.8002" width="32.9277" height="44.5114" filterUnits="userSpaceOnUse" color-interpolation-filters="sRGB">
<feFlood flood-opacity="0" result="BackgroundImageFix"/>
<feBlend mode="normal" in="SourceGraphic" in2="BackgroundImageFix" result="shape"/>
<feGaussianBlur stdDeviation="4" result="effect1_foregroundBlur_1_58560"/>
</filter>
<linearGradient id="paint0_linear_1_58560" x1="17.5067" y1="164.681" x2="62.1735" y2="169.853" gradientUnits="userSpaceOnUse">
<stop/>
<stop offset="1" stop-opacity="0"/>
</linearGradient>
<linearGradient id="paint1_linear_1_58560" x1="37.6325" y1="66.1834" x2="15.6384" y2="119.855" gradientUnits="userSpaceOnUse">
<stop stop-color="#51A234"/>
<stop offset="1" stop-color="#43852C"/>
</linearGradient>
<linearGradient id="paint2_linear_1_58560" x1="30.7206" y1="70.4754" x2="24.6869" y2="122.581" gradientUnits="userSpaceOnUse">
<stop stop-color="#3E782A"/>
<stop offset="1" stop-color="#2F5B20"/>
</linearGradient>
<linearGradient id="paint3_linear_1_58560" x1="35.5312" y1="68.8909" x2="29.4975" y2="120.996" gradientUnits="userSpaceOnUse">
<stop stop-color="#3E782A"/>
<stop offset="1" stop-color="#2F5B20"/>
</linearGradient>
<linearGradient id="paint4_linear_1_58560" x1="37.9381" y1="73.5356" x2="33.4112" y2="112.629" gradientUnits="userSpaceOnUse">
<stop stop-color="#3E782A"/>
<stop offset="1" stop-color="#2F5B20"/>
</linearGradient>
<linearGradient id="paint5_linear_1_58560" x1="37.6325" y1="66.1834" x2="15.6384" y2="119.855" gradientUnits="userSpaceOnUse">
<stop stop-color="#51A234"/>
<stop offset="1" stop-color="#43852C"/>
</linearGradient>
<linearGradient id="paint6_linear_1_58560" x1="39.9562" y1="79.4305" x2="66.4234" y2="78.8177" gradientUnits="userSpaceOnUse">
<stop/>
<stop offset="1" stop-opacity="0"/>
</linearGradient>
<linearGradient id="paint7_linear_1_58560" x1="39.9562" y1="79.4309" x2="66.4234" y2="78.8181" gradientUnits="userSpaceOnUse">
<stop/>
<stop offset="1" stop-opacity="0"/>
</linearGradient>
<linearGradient id="paint8_linear_1_58560" x1="52.6818" y1="12.1395" x2="52.6818" y2="159.276" gradientUnits="userSpaceOnUse">
<stop stop-color="#3E782A"/>
<stop offset="1" stop-color="#2F5B20"/>
</linearGradient>
<linearGradient id="paint9_linear_1_58560" x1="58.7247" y1="12.2891" x2="58.7247" y2="160.135" gradientUnits="userSpaceOnUse">
<stop stop-color="#3E782A"/>
<stop offset="1" stop-color="#2F5B20"/>
</linearGradient>
<linearGradient id="paint10_linear_1_58560" x1="63.5864" y1="22.6116" x2="46.9061" y2="166.658" gradientUnits="userSpaceOnUse">
<stop stop-color="#3E782A"/>
<stop offset="1" stop-color="#2F5B20"/>
</linearGradient>
<linearGradient id="paint11_linear_1_58560" x1="88.1336" y1="58.8254" x2="51.6746" y2="93.0589" gradientUnits="userSpaceOnUse">
<stop stop-color="#51A234"/>
<stop offset="1" stop-color="#43852C"/>
</linearGradient>
<linearGradient id="paint12_linear_1_58560" x1="70.3801" y1="46.241" x2="64.3464" y2="98.3463" gradientUnits="userSpaceOnUse">
<stop stop-color="#3E782A"/>
<stop offset="1" stop-color="#2F5B20"/>
</linearGradient>
<linearGradient id="paint13_linear_1_58560" x1="75.7739" y1="57.8328" x2="71.3609" y2="95.9423" gradientUnits="userSpaceOnUse">
<stop stop-color="#3E782A"/>
<stop offset="1" stop-color="#2F5B20"/>
</linearGradient>
</defs>
</svg>
