<svg width="33" height="30" viewBox="0 0 33 30" fill="none" xmlns="http://www.w3.org/2000/svg">
<path d="M24.5657 3.75C23.5163 3.75 22.51 4.14509 21.768 4.84835C21.026 5.55161 20.6092 6.50544 20.6092 7.5V22.5C20.6092 23.4946 21.026 24.4484 21.768 25.1517C22.51 25.8549 23.5163 26.25 24.5657 26.25C25.615 26.25 26.6213 25.8549 27.3633 25.1517C28.1053 24.4484 28.5221 23.4946 28.5221 22.5C28.5221 21.5054 28.1053 20.5516 27.3633 19.8483C26.6213 19.1451 25.615 18.75 24.5657 18.75H8.73969C7.69037 18.75 6.68402 19.1451 5.94203 19.8483C5.20005 20.5516 4.7832 21.5054 4.7832 22.5C4.7832 23.4946 5.20005 24.4484 5.94203 25.1517C6.68402 25.8549 7.69037 26.25 8.73969 26.25C9.78902 26.25 10.7954 25.8549 11.5374 25.1517C12.2793 24.4484 12.6962 23.4946 12.6962 22.5V7.5C12.6962 6.50544 12.2793 5.55161 11.5374 4.84835C10.7954 4.14509 9.78902 3.75 8.73969 3.75C7.69037 3.75 6.68402 4.14509 5.94203 4.84835C5.20005 5.55161 4.7832 6.50544 4.7832 7.5C4.7832 8.49456 5.20005 9.44839 5.94203 10.1517C6.68402 10.8549 7.69037 11.25 8.73969 11.25H24.5657C25.615 11.25 26.6213 10.8549 27.3633 10.1517C28.1053 9.44839 28.5221 8.49456 28.5221 7.5C28.5221 6.50544 28.1053 5.55161 27.3633 4.84835C26.6213 4.14509 25.615 3.75 24.5657 3.75Z" stroke="#54BD95" stroke-width="2" stroke-linecap="round" stroke-linejoin="round"/>
</svg>
