<svg width="25" height="24" viewBox="0 0 25 24" fill="none" xmlns="http://www.w3.org/2000/svg">
<rect width="25" height="24" fill="#F5F5F5"/>
<path d="M-1553 -7458C-1553 -7459.1 -1552.1 -7460 -1551 -7460H6306C6307.1 -7460 6308 -7459.1 6308 -7458V715C6308 716.104 6307.1 717 6306 717H-1551C-1552.1 717 -1553 716.104 -1553 715V-7458Z" fill="#CBCBCB"/>
<path d="M-1551 -7460V-7459H6306V-7460V-7461H-1551V-7460ZM6308 -7458H6307V715H6308H6309V-7458H6308ZM6306 717V716H-1551V717V718H6306V717ZM-1553 715H-1552V-7458H-1553H-1554V715H-1553ZM-1551 717V716C-1551.55 716 -1552 715.552 -1552 715H-1553H-1554C-1554 716.657 -1552.66 718 -1551 718V717ZM6308 715H6307C6307 715.552 6306.55 716 6306 716V717V718C6307.66 718 6309 716.656 6309 715H6308ZM6306 -7460V-7459C6306.55 -7459 6307 -7458.55 6307 -7458H6308H6309C6309 -7459.66 6307.66 -7461 6306 -7461V-7460ZM-1551 -7460V-7461C-1552.66 -7461 -1554 -7459.66 -1554 -7458H-1553H-1552C-1552 -7458.55 -1551.55 -7459 -1551 -7459V-7460Z" fill="white" fill-opacity="0.1"/>
<g clip-path="url(#clip0_0_1)">
<rect width="1440" height="7143" transform="translate(-1186 -6933)" fill="white"/>
<rect width="1440" height="306" transform="translate(-1186 -96)" fill="#161C28"/>
<g clip-path="url(#clip1_0_1)">
<path d="M22.5 12.3038C22.5 6.74719 18.0229 2.24268 12.5 2.24268C6.97715 2.24268 2.5 6.74719 2.5 12.3038C2.5 17.3255 6.15684 21.4879 10.9375 22.2427V15.2121H8.39844V12.3038H10.9375V10.0872C10.9375 7.56564 12.4305 6.1728 14.7146 6.1728C15.8088 6.1728 16.9531 6.36931 16.9531 6.36931V8.84529H15.6922C14.45 8.84529 14.0625 9.6209 14.0625 10.4166V12.3038H16.8359L16.3926 15.2121H14.0625V22.2427C18.8432 21.4879 22.5 17.3257 22.5 12.3038Z" fill="white"/>
</g>
</g>
<defs>
<clipPath id="clip0_0_1">
<rect width="1440" height="7143" fill="white" transform="translate(-1186 -6933)"/>
</clipPath>
<clipPath id="clip1_0_1">
<rect width="157" height="64" fill="white" transform="translate(0.5 -40)"/>
</clipPath>
</defs>
</svg>
