<svg width="594" height="312" viewBox="0 0 594 312" fill="none" xmlns="http://www.w3.org/2000/svg">
<rect width="594" height="312" fill="#F5F5F5"/>
<path d="M-498 -3653C-498 -3654.1 -497.105 -3655 -496 -3655H7361C7362.1 -3655 7363 -3654.1 7363 -3653V4520C7363 4521.1 7362.1 4522 7361 4522H-496C-497.105 4522 -498 4521.1 -498 4520V-3653Z" fill="#CBCBCB"/>
<path d="M-496 -3655V-3654H7361V-3655V-3656H-496V-3655ZM7363 -3653H7362V4520H7363H7364V-3653H7363ZM7361 4522V4521H-496V4522V4523H7361V4522ZM-498 4520H-497V-3653H-498H-499V4520H-498ZM-496 4522V4521C-496.552 4521 -497 4520.55 -497 4520H-498H-499C-499 4521.66 -497.657 4523 -496 4523V4522ZM7363 4520H7362C7362 4520.55 7361.55 4521 7361 4521V4522V4523C7362.66 4523 7364 4521.66 7364 4520H7363ZM7361 -3655V-3654C7361.55 -3654 7362 -3653.55 7362 -3653H7363H7364C7364 -3654.66 7362.66 -3656 7361 -3656V-3655ZM-496 -3655V-3656C-497.657 -3656 -499 -3654.66 -499 -3653H-498H-497C-497 -3653.55 -496.552 -3654 -496 -3654V-3655Z" fill="white" fill-opacity="0.1"/>
<g clip-path="url(#clip0_0_1)">
<rect width="1440" height="7143" transform="translate(-131 -3128)" fill="white"/>
<rect width="1440" height="1880" transform="translate(-131 -984)" fill="white"/>
<g filter="url(#filter0_d_0_1)">
<g clip-path="url(#clip1_0_1)">
<rect x="25" y="25" width="543.5" height="261.5" rx="6" fill="#F9F8FE"/>
<path fill-rule="evenodd" clip-rule="evenodd" d="M296.494 108.213C271.494 108.212 246.738 112.835 223.641 121.817C200.543 130.8 179.557 143.967 161.879 160.566C144.201 177.165 130.178 196.871 120.612 218.559C111.045 240.247 106.122 263.493 106.124 286.967L75.5 286.969C75.4984 259.718 81.2136 232.734 92.319 207.557C103.425 182.38 119.703 159.503 140.224 140.234C160.746 120.965 185.109 105.68 211.922 95.2518C238.735 84.8239 267.473 79.4575 296.495 79.459L296.494 93.8361L296.495 79.459C418.552 79.459 517.5 172.358 517.5 286.968H486.876C486.876 188.24 401.639 108.213 296.494 108.213H296.494Z" fill="#54BD95"/>
<path fill-rule="evenodd" clip-rule="evenodd" d="M296.5 151.396C258.464 151.396 221.976 165.668 195.066 191.088C168.154 216.51 153.026 250.999 153.026 286.97H122.5C122.5 243.405 140.82 201.615 173.446 170.796C206.074 139.976 250.337 122.652 296.5 122.652C342.663 122.652 386.926 139.976 419.554 170.796C452.18 201.615 470.5 243.405 470.5 286.97H439.974C439.974 250.999 424.846 216.51 397.934 191.088C371.024 165.668 334.536 151.396 296.5 151.396Z" fill="#FEE900"/>
<path fill-rule="evenodd" clip-rule="evenodd" d="M296.5 193.625C270.134 193.625 244.849 203.46 226.205 220.965C207.562 238.47 197.088 262.213 197.088 286.969H166.5C166.5 254.595 180.196 223.548 204.576 200.656C228.956 177.765 262.022 164.904 296.5 164.904C330.978 164.904 364.044 177.765 388.424 200.656C412.804 223.548 426.5 254.595 426.5 286.969H395.912C395.912 262.213 385.438 238.47 366.795 220.965C348.151 203.46 322.866 193.625 296.5 193.625Z" fill="#0F8CE9"/>
<path d="M87.5 131.995L75 112L129 121.266L85 153.452L87.5 131.995Z" fill="#54BD95" stroke="white" stroke-width="2"/>
<path d="M494.265 104.081L477.342 120.502L475.06 65.7603L515.769 102.019L494.265 104.081Z" fill="#54BD95" stroke="white" stroke-width="2"/>
</g>
</g>
<path d="M29.7734 312.5V328.5H26.3906V312.5H29.7734ZM35.8223 321.563V328.5H32.4941V316.5H35.666V318.617H35.8066C36.0723 317.919 36.5176 317.367 37.1426 316.961C37.7676 316.549 38.5254 316.344 39.416 316.344C40.2493 316.344 40.9759 316.526 41.5957 316.891C42.2155 317.255 42.6973 317.776 43.041 318.453C43.3848 319.125 43.5566 319.927 43.5566 320.859V328.5H40.2285V321.453C40.2337 320.719 40.0462 320.146 39.666 319.734C39.2858 319.318 38.7624 319.109 38.0957 319.109C37.6478 319.109 37.252 319.206 36.9082 319.398C36.5697 319.591 36.304 319.872 36.1113 320.242C35.9238 320.607 35.8275 321.047 35.8223 321.563ZM52.6328 316.5V319H45.2266V316.5H52.6328ZM46.9219 328.5V315.633C46.9219 314.763 47.0911 314.042 47.4297 313.469C47.7734 312.896 48.2422 312.466 48.8359 312.18C49.4297 311.893 50.1042 311.75 50.8594 311.75C51.3698 311.75 51.8359 311.789 52.2578 311.867C52.6849 311.945 53.0026 312.016 53.2109 312.078L52.6172 314.578C52.487 314.536 52.3255 314.497 52.1328 314.461C51.9453 314.424 51.7526 314.406 51.5547 314.406C51.0651 314.406 50.724 314.521 50.5313 314.75C50.3385 314.974 50.2422 315.289 50.2422 315.695V328.5H46.9219ZM57.9941 312.5V328.5H54.666V312.5H57.9941ZM68.3555 323.391V316.5H71.6836V328.5H68.4883V326.32H68.3633C68.0924 327.023 67.6419 327.589 67.0117 328.016C66.3867 328.443 65.6237 328.656 64.7227 328.656C63.9206 328.656 63.2148 328.474 62.6055 328.109C61.9961 327.745 61.5195 327.227 61.1758 326.555C60.8372 325.883 60.6654 325.078 60.6602 324.141V316.5H63.9883V323.547C63.9935 324.255 64.1836 324.815 64.5586 325.227C64.9336 325.638 65.4362 325.844 66.0664 325.844C66.4674 325.844 66.8424 325.753 67.1914 325.57C67.5404 325.383 67.8216 325.107 68.0352 324.742C68.2539 324.378 68.3607 323.927 68.3555 323.391ZM79.8145 328.734C78.5801 328.734 77.5176 328.484 76.627 327.984C75.7415 327.479 75.0592 326.766 74.5801 325.844C74.1009 324.917 73.8613 323.82 73.8613 322.555C73.8613 321.32 74.1009 320.237 74.5801 319.305C75.0592 318.372 75.7337 317.646 76.6035 317.125C77.4785 316.604 78.5046 316.344 79.6816 316.344C80.4733 316.344 81.2103 316.471 81.8926 316.727C82.5801 316.977 83.179 317.354 83.6895 317.859C84.2051 318.365 84.6061 319 84.8926 319.766C85.179 320.526 85.3223 321.417 85.3223 322.437V323.352H75.1895V321.289H82.1895C82.1895 320.81 82.0853 320.385 81.877 320.016C81.6686 319.646 81.3796 319.357 81.0098 319.148C80.6452 318.935 80.2207 318.828 79.7363 318.828C79.2311 318.828 78.7832 318.945 78.3926 319.18C78.0072 319.409 77.7051 319.719 77.4863 320.109C77.2676 320.495 77.1556 320.924 77.1504 321.398V323.359C77.1504 323.953 77.2598 324.466 77.4785 324.898C77.7025 325.331 78.0176 325.664 78.4238 325.898C78.8301 326.133 79.3118 326.25 79.8691 326.25C80.2389 326.25 80.5775 326.198 80.8848 326.094C81.1921 325.99 81.4551 325.833 81.6738 325.625C81.8926 325.417 82.0592 325.161 82.1738 324.859L85.252 325.062C85.0957 325.802 84.7754 326.448 84.291 327C83.8118 327.547 83.1921 327.974 82.4316 328.281C81.6764 328.583 80.804 328.734 79.8145 328.734ZM90.8223 321.563V328.5H87.4941V316.5H90.666V318.617H90.8066C91.0723 317.919 91.5176 317.367 92.1426 316.961C92.7676 316.549 93.5254 316.344 94.416 316.344C95.2493 316.344 95.9759 316.526 96.5957 316.891C97.2155 317.255 97.6973 317.776 98.041 318.453C98.3848 319.125 98.5566 319.927 98.5566 320.859V328.5H95.2285V321.453C95.2337 320.719 95.0462 320.146 94.666 319.734C94.2858 319.318 93.7624 319.109 93.0957 319.109C92.6478 319.109 92.252 319.206 91.9082 319.398C91.5697 319.591 91.304 319.872 91.1113 320.242C90.9238 320.607 90.8275 321.047 90.8223 321.563ZM106.602 328.734C105.372 328.734 104.315 328.474 103.43 327.953C102.549 327.427 101.872 326.698 101.398 325.766C100.93 324.833 100.695 323.76 100.695 322.547C100.695 321.318 100.932 320.24 101.406 319.312C101.885 318.38 102.565 317.654 103.445 317.133C104.326 316.607 105.372 316.344 106.586 316.344C107.633 316.344 108.549 316.534 109.336 316.914C110.122 317.294 110.745 317.828 111.203 318.516C111.661 319.203 111.914 320.01 111.961 320.938H108.82C108.732 320.339 108.497 319.857 108.117 319.492C107.742 319.122 107.25 318.937 106.641 318.937C106.125 318.937 105.674 319.078 105.289 319.359C104.909 319.635 104.612 320.039 104.398 320.57C104.185 321.102 104.078 321.745 104.078 322.5C104.078 323.266 104.182 323.917 104.391 324.453C104.604 324.99 104.904 325.398 105.289 325.68C105.674 325.961 106.125 326.102 106.641 326.102C107.021 326.102 107.362 326.023 107.664 325.867C107.971 325.711 108.224 325.484 108.422 325.187C108.625 324.885 108.758 324.523 108.82 324.102H111.961C111.909 325.018 111.659 325.826 111.211 326.523C110.768 327.216 110.156 327.758 109.375 328.148C108.594 328.539 107.669 328.734 106.602 328.734ZM119.561 328.734C118.326 328.734 117.264 328.484 116.373 327.984C115.488 327.479 114.805 326.766 114.326 325.844C113.847 324.917 113.607 323.82 113.607 322.555C113.607 321.32 113.847 320.237 114.326 319.305C114.805 318.372 115.48 317.646 116.35 317.125C117.225 316.604 118.251 316.344 119.428 316.344C120.219 316.344 120.956 316.471 121.639 316.727C122.326 316.977 122.925 317.354 123.436 317.859C123.951 318.365 124.352 319 124.639 319.766C124.925 320.526 125.068 321.417 125.068 322.437V323.352H114.936V321.289H121.936C121.936 320.81 121.831 320.385 121.623 320.016C121.415 319.646 121.126 319.357 120.756 319.148C120.391 318.935 119.967 318.828 119.482 318.828C118.977 318.828 118.529 318.945 118.139 319.18C117.753 319.409 117.451 319.719 117.232 320.109C117.014 320.495 116.902 320.924 116.896 321.398V323.359C116.896 323.953 117.006 324.466 117.225 324.898C117.449 325.331 117.764 325.664 118.17 325.898C118.576 326.133 119.058 326.25 119.615 326.25C119.985 326.25 120.324 326.198 120.631 326.094C120.938 325.99 121.201 325.833 121.42 325.625C121.639 325.417 121.805 325.161 121.92 324.859L124.998 325.062C124.842 325.802 124.521 326.448 124.037 327C123.558 327.547 122.938 327.974 122.178 328.281C121.423 328.583 120.55 328.734 119.561 328.734ZM127.24 328.5V316.5H130.467V318.594H130.592C130.811 317.849 131.178 317.286 131.693 316.906C132.209 316.521 132.803 316.328 133.475 316.328C133.641 316.328 133.821 316.339 134.014 316.359C134.206 316.38 134.376 316.409 134.521 316.445V319.398C134.365 319.352 134.149 319.31 133.873 319.273C133.597 319.237 133.344 319.219 133.115 319.219C132.626 319.219 132.188 319.326 131.803 319.539C131.423 319.747 131.12 320.039 130.896 320.414C130.678 320.789 130.568 321.221 130.568 321.711V328.5H127.24ZM141.334 328.5V316.5H144.506V318.617H144.646C144.896 317.914 145.313 317.359 145.896 316.953C146.48 316.547 147.178 316.344 147.99 316.344C148.813 316.344 149.514 316.549 150.092 316.961C150.67 317.367 151.055 317.919 151.248 318.617H151.373C151.618 317.93 152.061 317.38 152.701 316.969C153.347 316.552 154.11 316.344 154.99 316.344C156.11 316.344 157.019 316.701 157.717 317.414C158.42 318.122 158.771 319.128 158.771 320.43V328.5H155.451V321.086C155.451 320.419 155.274 319.919 154.92 319.586C154.566 319.253 154.123 319.086 153.592 319.086C152.988 319.086 152.516 319.279 152.178 319.664C151.839 320.044 151.67 320.547 151.67 321.172V328.5H148.443V321.016C148.443 320.427 148.274 319.958 147.936 319.609C147.602 319.26 147.162 319.086 146.615 319.086C146.245 319.086 145.912 319.18 145.615 319.367C145.324 319.549 145.092 319.807 144.92 320.141C144.748 320.469 144.662 320.854 144.662 321.297V328.5H141.334ZM164.822 328.727C164.057 328.727 163.374 328.594 162.775 328.328C162.176 328.057 161.702 327.659 161.354 327.133C161.01 326.602 160.838 325.94 160.838 325.148C160.838 324.482 160.96 323.922 161.205 323.469C161.45 323.016 161.783 322.651 162.205 322.375C162.627 322.099 163.106 321.891 163.643 321.75C164.184 321.609 164.752 321.51 165.346 321.453C166.044 321.38 166.606 321.312 167.033 321.25C167.46 321.182 167.77 321.083 167.963 320.953C168.156 320.823 168.252 320.63 168.252 320.375V320.328C168.252 319.833 168.096 319.451 167.783 319.18C167.476 318.909 167.038 318.773 166.471 318.773C165.872 318.773 165.395 318.906 165.041 319.172C164.687 319.432 164.452 319.76 164.338 320.156L161.26 319.906C161.416 319.177 161.723 318.547 162.182 318.016C162.64 317.479 163.231 317.068 163.955 316.781C164.684 316.49 165.528 316.344 166.486 316.344C167.153 316.344 167.791 316.422 168.4 316.578C169.015 316.734 169.559 316.977 170.033 317.305C170.512 317.633 170.89 318.055 171.166 318.57C171.442 319.081 171.58 319.693 171.58 320.406V328.5H168.424V326.836H168.33C168.137 327.211 167.88 327.542 167.557 327.828C167.234 328.109 166.846 328.331 166.393 328.492C165.939 328.648 165.416 328.727 164.822 328.727ZM165.775 326.43C166.265 326.43 166.697 326.333 167.072 326.141C167.447 325.943 167.742 325.677 167.955 325.344C168.169 325.01 168.275 324.633 168.275 324.211V322.938C168.171 323.005 168.028 323.068 167.846 323.125C167.669 323.177 167.468 323.227 167.244 323.273C167.02 323.315 166.796 323.354 166.572 323.391C166.348 323.422 166.145 323.451 165.963 323.477C165.572 323.534 165.231 323.625 164.939 323.75C164.648 323.875 164.421 324.044 164.26 324.258C164.098 324.466 164.018 324.727 164.018 325.039C164.018 325.492 164.182 325.839 164.51 326.078C164.843 326.312 165.265 326.43 165.775 326.43ZM174.162 328.5V316.5H177.389V318.594H177.514C177.732 317.849 178.1 317.286 178.615 316.906C179.131 316.521 179.725 316.328 180.396 316.328C180.563 316.328 180.743 316.339 180.936 316.359C181.128 316.38 181.298 316.409 181.443 316.445V319.398C181.287 319.352 181.071 319.31 180.795 319.273C180.519 319.237 180.266 319.219 180.037 319.219C179.548 319.219 179.11 319.326 178.725 319.539C178.344 319.747 178.042 320.039 177.818 320.414C177.6 320.789 177.49 321.221 177.49 321.711V328.5H174.162ZM186.18 325.047L186.188 321.055H186.672L190.516 316.5H194.336L189.172 322.531H188.383L186.18 325.047ZM183.164 328.5V312.5H186.492V328.5H183.164ZM190.664 328.5L187.133 323.273L189.352 320.922L194.563 328.5H190.664ZM200.943 328.734C199.709 328.734 198.646 328.484 197.756 327.984C196.87 327.479 196.188 326.766 195.709 325.844C195.23 324.917 194.99 323.82 194.99 322.555C194.99 321.32 195.23 320.237 195.709 319.305C196.188 318.372 196.863 317.646 197.732 317.125C198.607 316.604 199.633 316.344 200.811 316.344C201.602 316.344 202.339 316.471 203.021 316.727C203.709 316.977 204.308 317.354 204.818 317.859C205.334 318.365 205.735 319 206.021 319.766C206.308 320.526 206.451 321.417 206.451 322.437V323.352H196.318V321.289H203.318C203.318 320.81 203.214 320.385 203.006 320.016C202.798 319.646 202.508 319.357 202.139 319.148C201.774 318.935 201.35 318.828 200.865 318.828C200.36 318.828 199.912 318.945 199.521 319.18C199.136 319.409 198.834 319.719 198.615 320.109C198.396 320.495 198.285 320.924 198.279 321.398V323.359C198.279 323.953 198.389 324.466 198.607 324.898C198.831 325.331 199.146 325.664 199.553 325.898C199.959 326.133 200.441 326.25 200.998 326.25C201.368 326.25 201.706 326.198 202.014 326.094C202.321 325.99 202.584 325.833 202.803 325.625C203.021 325.417 203.188 325.161 203.303 324.859L206.381 325.062C206.225 325.802 205.904 326.448 205.42 327C204.941 327.547 204.321 327.974 203.561 328.281C202.805 328.583 201.933 328.734 200.943 328.734ZM215.006 316.5V319H207.779V316.5H215.006ZM209.42 313.625H212.748V324.812C212.748 325.12 212.795 325.359 212.889 325.531C212.982 325.698 213.113 325.815 213.279 325.883C213.451 325.951 213.649 325.984 213.873 325.984C214.029 325.984 214.186 325.971 214.342 325.945C214.498 325.914 214.618 325.891 214.701 325.875L215.225 328.352C215.058 328.404 214.824 328.464 214.521 328.531C214.219 328.604 213.852 328.648 213.42 328.664C212.618 328.695 211.915 328.589 211.311 328.344C210.712 328.099 210.245 327.719 209.912 327.203C209.579 326.687 209.415 326.036 209.42 325.25V313.625ZM217.174 328.5V316.5H220.502V328.5H217.174ZM218.846 314.953C218.351 314.953 217.926 314.789 217.572 314.461C217.223 314.128 217.049 313.729 217.049 313.266C217.049 312.807 217.223 312.414 217.572 312.086C217.926 311.753 218.351 311.586 218.846 311.586C219.34 311.586 219.762 311.753 220.111 312.086C220.465 312.414 220.643 312.807 220.643 313.266C220.643 313.729 220.465 314.128 220.111 314.461C219.762 314.789 219.34 314.953 218.846 314.953ZM226.496 321.563V328.5H223.168V316.5H226.34V318.617H226.48C226.746 317.919 227.191 317.367 227.816 316.961C228.441 316.549 229.199 316.344 230.09 316.344C230.923 316.344 231.65 316.526 232.27 316.891C232.889 317.255 233.371 317.776 233.715 318.453C234.059 319.125 234.23 319.927 234.23 320.859V328.5H230.902V321.453C230.908 320.719 230.72 320.146 230.34 319.734C229.96 319.318 229.436 319.109 228.77 319.109C228.322 319.109 227.926 319.206 227.582 319.398C227.243 319.591 226.978 319.872 226.785 320.242C226.598 320.607 226.501 321.047 226.496 321.563ZM242.26 333.25C241.182 333.25 240.257 333.102 239.486 332.805C238.721 332.513 238.111 332.115 237.658 331.609C237.205 331.104 236.911 330.536 236.775 329.906L239.854 329.492C239.947 329.732 240.096 329.956 240.299 330.164C240.502 330.372 240.77 330.539 241.104 330.664C241.442 330.794 241.854 330.859 242.338 330.859C243.062 330.859 243.658 330.682 244.127 330.328C244.601 329.979 244.838 329.393 244.838 328.57V326.375H244.697C244.551 326.708 244.333 327.023 244.041 327.32C243.749 327.617 243.374 327.859 242.916 328.047C242.458 328.234 241.911 328.328 241.275 328.328C240.374 328.328 239.554 328.12 238.814 327.703C238.08 327.281 237.494 326.638 237.057 325.773C236.624 324.904 236.408 323.805 236.408 322.477C236.408 321.117 236.63 319.982 237.072 319.07C237.515 318.159 238.104 317.477 238.838 317.023C239.577 316.57 240.387 316.344 241.268 316.344C241.939 316.344 242.502 316.458 242.955 316.688C243.408 316.911 243.773 317.193 244.049 317.531C244.33 317.865 244.546 318.193 244.697 318.516H244.822V316.5H248.127V328.617C248.127 329.638 247.877 330.492 247.377 331.18C246.877 331.867 246.184 332.383 245.299 332.727C244.419 333.076 243.406 333.25 242.26 333.25ZM242.33 325.828C242.867 325.828 243.32 325.695 243.689 325.43C244.064 325.159 244.351 324.773 244.549 324.273C244.752 323.768 244.854 323.164 244.854 322.461C244.854 321.758 244.755 321.148 244.557 320.633C244.359 320.112 244.072 319.708 243.697 319.422C243.322 319.135 242.867 318.992 242.33 318.992C241.783 318.992 241.322 319.141 240.947 319.437C240.572 319.729 240.288 320.135 240.096 320.656C239.903 321.177 239.807 321.779 239.807 322.461C239.807 323.154 239.903 323.753 240.096 324.258C240.294 324.758 240.577 325.146 240.947 325.422C241.322 325.693 241.783 325.828 242.33 325.828Z" fill="black"/>
<g filter="url(#filter1_d_0_1)">
<rect x="608.5" y="25" width="543.5" height="665" rx="6" fill="#54BD95"/>
</g>
</g>
<defs>
<filter id="filter0_d_0_1" x="0" y="0" width="593.5" height="311.5" filterUnits="userSpaceOnUse" color-interpolation-filters="sRGB">
<feFlood flood-opacity="0" result="BackgroundImageFix"/>
<feColorMatrix in="SourceAlpha" type="matrix" values="0 0 0 0 0 0 0 0 0 0 0 0 0 0 0 0 0 0 127 0" result="hardAlpha"/>
<feOffset/>
<feGaussianBlur stdDeviation="12.5"/>
<feComposite in2="hardAlpha" operator="out"/>
<feColorMatrix type="matrix" values="0 0 0 0 0.184233 0 0 0 0 0.223383 0 0 0 0 0.404167 0 0 0 0.15 0"/>
<feBlend mode="normal" in2="BackgroundImageFix" result="effect1_dropShadow_0_1"/>
<feBlend mode="normal" in="SourceGraphic" in2="effect1_dropShadow_0_1" result="shape"/>
</filter>
<filter id="filter1_d_0_1" x="583.5" y="0" width="593.5" height="715" filterUnits="userSpaceOnUse" color-interpolation-filters="sRGB">
<feFlood flood-opacity="0" result="BackgroundImageFix"/>
<feColorMatrix in="SourceAlpha" type="matrix" values="0 0 0 0 0 0 0 0 0 0 0 0 0 0 0 0 0 0 127 0" result="hardAlpha"/>
<feOffset/>
<feGaussianBlur stdDeviation="12.5"/>
<feComposite in2="hardAlpha" operator="out"/>
<feColorMatrix type="matrix" values="0 0 0 0 0.184233 0 0 0 0 0.223383 0 0 0 0 0.404167 0 0 0 0.15 0"/>
<feBlend mode="normal" in2="BackgroundImageFix" result="effect1_dropShadow_0_1"/>
<feBlend mode="normal" in="SourceGraphic" in2="effect1_dropShadow_0_1" result="shape"/>
</filter>
<clipPath id="clip0_0_1">
<rect width="1440" height="7143" fill="white" transform="translate(-131 -3128)"/>
</clipPath>
<clipPath id="clip1_0_1">
<rect x="25" y="25" width="543.5" height="261.5" rx="6" fill="white"/>
</clipPath>
</defs>
</svg>
