<svg width="33" height="30" viewBox="0 0 33 30" fill="none" xmlns="http://www.w3.org/2000/svg">
<path d="M28.8032 19.8621C27.9641 21.7427 26.6517 23.3999 24.9806 24.6887C23.3096 25.9776 21.3308 26.8589 19.2174 27.2556C17.1039 27.6523 14.9201 27.5523 12.8568 26.9644C10.7935 26.3764 8.91364 25.3184 7.38149 23.8829C5.84934 22.4474 4.71158 20.6781 4.06767 18.7295C3.42377 16.781 3.29333 14.7127 3.68775 12.7054C4.08218 10.6981 4.98947 8.81289 6.33029 7.21465C7.67111 5.6164 9.40464 4.35376 11.3793 3.53711" stroke="#54BD95" stroke-width="2" stroke-linecap="round" stroke-linejoin="round"/>
<path d="M29.8462 15C29.8462 13.3585 29.505 11.733 28.8422 10.2165C28.1793 8.69989 27.2077 7.3219 25.9829 6.16117C24.7581 5.00043 23.3041 4.07969 21.7038 3.45151C20.1035 2.82332 18.3884 2.5 16.6562 2.5V15H29.8462Z" stroke="#54BD95" stroke-width="2" stroke-linecap="round" stroke-linejoin="round"/>
</svg>
