<svg width="544" height="262" viewBox="0 0 544 262" fill="none" xmlns="http://www.w3.org/2000/svg">
<path d="M232 107.861C231.997 101.719 230.559 95.6527 227.787 90.0861C225.016 84.5196 220.977 79.5877 215.955 75.636C210.932 71.6844 205.048 68.8085 198.713 67.21C192.378 65.6114 185.747 65.3289 179.283 66.3821C172.819 67.4353 166.68 69.7989 161.294 73.3071C155.909 76.8153 151.409 81.3834 148.108 86.6912C144.808 91.999 142.787 97.9182 142.188 104.034C141.589 110.15 142.426 116.314 144.639 122.096H229.352C231.107 117.53 232.003 112.713 232 107.861V107.861Z" fill="#54BD95"/>
<path d="M300.548 40.406C294.885 40.4046 289.272 41.3909 284 43.3136V122.005C290.222 124.27 296.904 125.231 303.571 124.82C310.238 124.408 316.726 122.635 322.571 119.625C328.417 116.616 333.476 112.444 337.39 107.408C341.304 102.372 343.975 96.5953 345.213 90.4895C346.451 84.3836 346.226 78.099 344.554 72.0833C342.881 66.0676 339.803 60.4689 335.537 55.6862C331.272 50.9035 325.925 47.0544 319.877 44.4133C313.829 41.7721 307.229 40.4038 300.548 40.406V40.406Z" fill="#DBE5FA"/>
<path d="M250.966 165.287C244.108 165.291 237.334 166.704 231.12 169.428C224.905 172.151 219.401 176.119 214.993 181.053C210.585 185.987 207.38 191.767 205.604 197.987C203.827 204.208 203.522 210.719 204.71 217.062C205.898 223.405 208.55 229.427 212.479 234.705C216.409 239.983 221.521 244.39 227.457 247.615C233.393 250.841 240.009 252.807 246.84 253.377C253.671 253.946 260.552 253.104 267 250.91V167.926C261.86 166.178 256.434 165.285 250.966 165.287V165.287Z" fill="#0F8CE9"/>
<path d="M351 236.648C373.091 236.648 391 219.833 391 199.09C391 178.347 373.091 161.531 351 161.531C328.909 161.531 311 178.347 311 199.09C311 219.833 328.909 236.648 351 236.648Z" fill="#FEE900"/>
<path d="M276.5 6.61523V135.229H3.5V6.61523H276.5Z" stroke="#54BD95" stroke-width="15" stroke-miterlimit="10"/>
<path d="M541.5 6.61523V135.229H276.5V6.61523H541.5Z" stroke="#54BD95" stroke-width="15" stroke-miterlimit="10"/>
<path d="M274.5 126.803V255.417H8.5V126.803H274.5Z" stroke="#54BD95" stroke-width="15" stroke-miterlimit="10"/>
<path d="M536.5 126.803V255.417H276.5V126.803H536.5Z" stroke="#54BD95" stroke-width="15" stroke-miterlimit="10"/>
</svg>
